<?xml version="1.0" encoding="utf-8"?>
<!-- Generator: Adobe Illustrator 19.2.1, SVG Export Plug-In . SVG Version: 6.00 Build 0)  -->
<!DOCTYPE svg PUBLIC "-//W3C//DTD SVG 1.1//EN" "http://www.w3.org/Graphics/SVG/1.1/DTD/svg11.dtd">
<svg version="1.1" id="h-shield" xmlns="http://www.w3.org/2000/svg" xmlns:xlink="http://www.w3.org/1999/xlink" x="0px" y="0px"
	 viewBox="0 0 308.8 364.8" style="enable-background:new 0 0 308.8 364.8;" xml:space="preserve">
<style type="text/css">
	.st0{fill:#1A1918;}
	.st1{fill:#B01C33;}
	.st2{fill:#FFFFFF;}
	.st3{display:none;}
	.st4{display:inline;}
	.st5{display:inline;fill:#FFFFFF;}
</style>
<title>h-y-shield</title>
<path id="black-shield" class="st0" d="M308.8,127c0,159.8-150.2,235.7-151.7,236.4l-2.7,1.3l-2.7-1.3C150.2,362.7,0,286.8,0,127V0
	h308.8V127"/>
<path id="crimson" class="st1" d="M6,6.3v121c0,157.9,148.4,231,148.4,231s148.4-73.1,148.4-231V6.3H6"/>
<path id="black-h" class="st0" d="M178.7,31.9v38.7h8.9v53h-66.5v-53h8.8V31.9H73.5v38.7h8.9v144.6h-9v38.7h56.5v-38.7h-8.8v-53
	h66.5v53h-8.9v38.7h56.6v-38.7h-8.9V70.6h8.9V31.9H178.7"/>
<path id="white-h" class="st2" d="M184.1,37.3v27.9h8.9V129h-77.3V65.2h8.8V37.3H78.9v27.9h8.9v155.5h-9v27.9h45.7v-27.9h-8.8v-63.9
	H193v63.8h-8.9v27.9h45.8v-27.8H221V65.2h8.9V37.3H184.1"/>
<g id="black-y" class="st3">
	<path class="st4" d="M217.9,264.5H92.1v-55.1h18.5v-36.6l-58-83.4H36.9V34.3h120.2v55.1h-13.7l24.5,47l29.6-47h-14.1V34.3h88.5
		v55.1h-14.3l-57.9,83.4v36.6h18.2V264.5L217.9,264.5z"/>
</g>
<g id="white-y" class="st3">
	<polygon class="st5" points="97.1,259.5 97.1,214.4 115.6,214.4 115.6,171.3 55.2,84.5 41.9,84.5 41.9,39.4 152.1,39.4 152.1,84.5 
		135.2,84.5 167.5,146.5 206.6,84.5 188.4,84.5 188.4,39.4 267,39.4 267,84.5 254.9,84.5 194.7,171.3 194.7,214.4 212.8,214.4 
		212.8,259.5 	"/>
</g>
</svg>
