<svg id="hShield" xmlns="http://www.w3.org/2000/svg" viewBox="0 0 124.51 147.97"><title>harvard-shield</title><path id="black_shield" data-name="black shield" d="M75.54,149l-0.41-.17c-0.58-.24-58-25.05-62.38-100.53V1H137.25V48.23c0,18.56-6,65.52-61.33,100.51l-0.38.24" transform="translate(-12.74 -1.02)"/><path id="crimson" d="M14.46,2.73V48.23c4.12,71,55.81,96.48,60.93,98.81,54.28-34.51,60.15-80.58,60.15-98.82V2.73H14.46Z" transform="translate(-12.74 -1.02)" fill="#ac1a2f"/><g id="ri"><path d="M107.68,63.36s-1.09,3.48-6-.1L85,62.86a1.83,1.83,0,0,1-2.49-1.59,38.37,38.37,0,0,0,.2-5S82.8,55,80.62,55c0,0-3.38.4-3.48-2.58,0,0-.6-3.19,4.08-3.08,0,0,1.49.69,1.59-1.2,0,0-.2-12.93-0.1-13.93,0,0,.4-1.19-1.89-1.39,0,0-3.28.7-3.68-1.49,0,0-.2-3.28,2-3.48,0,0,2.69.2,3.18-.5,0,0,.6.4,0.5-2l0.1-4.08s0.3-1.09,2-1c0,0,3.08.2,3.48-.1a12.55,12.55,0,0,0,.9-1.29s1.59-.1,1.89.3c0,0,2.39,1.59,11.44,1a3.11,3.11,0,0,1,1.69.4s1.69,1.29,2.69-.1a32.81,32.81,0,0,1,6-.2s4.88,1.29,8.26-1.49L122.3,19s1.39,2.29,2.39,1.59c0,0,3-.3,3.48.3,0,0,1,1.49.5,5.37,0,0-.6,1.69,2.29,1.69,0,0,3.28-.6,2.88,2.49,0,0,.9,3.48-4.58,3a3.16,3.16,0,0,0-.6,1.69s-0.1,11.34-.2,12.63c0,0-.1,1.79,2.29,1.69,0,0,3.18-.2,3.28,2.69,0,0,.4,3.78-4.18,3.08,0,0-1.39.2-1.59,1.09l-0.2,5s0.1,2.49-2.69,1.89c-0.4,0-15.52.3-16.81-.1a1,1,0,0,0-.9.3" transform="translate(-12.74 -1.02)"/><path d="M88.87,22.37s0.2,2,.2,2.49-0.3,28.75-.3,28.75a3.42,3.42,0,0,1-1.59,3.28s-0.5.2-.6-1.19l0.2-29.85s0.2-3.68,2.09-3.48" transform="translate(-12.74 -1.02)" fill="#fff"/><path d="M85.59,57.19s0.2-28.06.1-28.55,0.1,0.4.1,0.4-0.3-4.87,1-6.86c0,0-.4-1.69-2.69.4L84,26.65s0,2.29-2.09,2.19c0,0-2.39-.1-3.48,1a1.34,1.34,0,0,0,1.69,1.79s3.58,0,3.78,1.49l-0.2,15a1.82,1.82,0,0,1-2,2.49s-3.38-.2-3.28,1.89c0,0,.7,1.79,3.58,1.2a2.4,2.4,0,0,1,2,2.39v3.78s-0.2,1.49,1.79,1.59h15.52a0.75,0.75,0,0,0,.8-0.9,1.11,1.11,0,0,0-1.29-.79l-12.93-.2s-2.09.69-2.29-2.39" transform="translate(-12.74 -1.02)" fill="#fff"/><path d="M88.28,57.39a0.82,0.82,0,0,0,1.09,1.09H99.62l2.79,0.6s2.89-.69,0-2.29c0,0-9.15.1-9.95-.1l-2.29-.6s-1-.4-1.89,1.29" transform="translate(-12.74 -1.02)" fill="#fff"/><path d="M88.28,57.39a0.82,0.82,0,0,0,1.09,1.09H99.62l2.79,0.6s2.89-.69,0-2.29c0,0-9.15.1-9.95-.1l-2.29-.6S89.17,55.7,88.28,57.39Z" transform="translate(-12.74 -1.02)" fill="#fff"/><path d="M105.29,58.78s-1.89,0-1.79,2.49a2.14,2.14,0,0,0,2.19,1.89,2,2,0,0,0,1.59-2.29s-1.09-2.49-2-2.09" transform="translate(-12.74 -1.02)" fill="#fff"/><path d="M106.68,57.79a3.17,3.17,0,0,1,1.49-1s10,0.89,11.64-.3a3.94,3.94,0,0,1,1.89,0s1.49,1.19,1.49,1.89c0,0-.1.9-1.89,0.4l-11.84.1s-3.09.69-2.79-1.1" transform="translate(-12.74 -1.02)" fill="#fff"/><path d="M108.28,60.77s0-.8,1.39-0.8l13.93-.1s1.29,0.7,1.29-1.69c0,0,.51-10.85.56-22.79,0-3.54.17-7.28,0-10.74a4.61,4.61,0,0,0-.7-1.79,1.1,1.1,0,0,1,1.69-1s1.49,0.1,1.1,2.39l0.1,3.48s-0.3,1.49,2.39,1.09c0,0,2.69.4,2.79,1.39,0,0,.8,2-2.39,1.79h-2.29a1.64,1.64,0,0,0-.7,1.79l-0.3,14.42s-0.2,2.49,2.19,2.39c0,0,2.49-.1,3,0.7,0,0,1.69,2.49-2,2.29,0,0-2.29-.1-2.79.3,0,0-.4.5-0.7,5.17,0,0,.2,2.79-1.89,2.49,0,0-13.83.2-15.12-.1,0,0-1.39.4-1.59-.7" transform="translate(-12.74 -1.02)" fill="#fff"/><path d="M90.37,21.47L90.07,53.4s-0.1,1.49,2.39,1.79a14.09,14.09,0,0,0,3.58,0s1.89-.1,6.76.1c0,0,1.2,1.19,1.29-.3,0,0,.79-25.87.4-31.24,0,0-.1-2.29-1.79-2.39,0,0-7.56.6-8.26,0l-3-.8s-1.2.1-1.09,0.9" transform="translate(-12.74 -1.02)" fill="#fff"/><path d="M106.08,23.06s-0.3,15-.2,15.52l-0.2,12.64-0.4,4.38s0.6,0.9,1.09.3a17.08,17.08,0,0,1,5.18-.5s6.37,0.6,7.66-.4c0,0,1,.5,1.29-1.09,0,0,.4-27.86.2-28.36a29.7,29.7,0,0,0,.2-4.38s-0.1-.89-1.79-0.1c0,0,.2.8-9.25,0.5,0,0-3.58-.1-3.78,1.49" transform="translate(-12.74 -1.02)" fill="#fff"/><path d="M121.9,22.67L121.8,54.1s0.8,2.79,2.09,2.49a8.07,8.07,0,0,0,.3-1.59l0.4-29.95s-1-4.78-2.68-2.39" transform="translate(-12.74 -1.02)" fill="#fff"/><path d="M109.69,32.08c-0.3-.8,1.69-0.9,1.69-0.9l1,0.2a3,3,0,0,1,1.39.2,1.15,1.15,0,0,1-.5,1.69l-0.4,1.29c-0.1,1.1,0,10.55,0,10.55a7.24,7.24,0,0,0,1,1.4c0,0.89-1.09.7-1.09,0.7l-2.89.1a0.8,0.8,0,0,1-.6-1.09c1-.5,1.29-2.29,1.29-2.29V34.07l-0.89-2" transform="translate(-12.74 -1.02)"/><path d="M96.26,41.33l-0.2,3.09L97,45.91a1,1,0,0,1-.4,1.39L93.38,47c-0.6-.3,0-1.29,0-1.29a2.59,2.59,0,0,0,.9-1.79l-0.1-5.77L94.27,34a3.39,3.39,0,0,0-.8-1.39c-0.69-.1-0.5-1-0.5-1,0.2-.5,1.89-0.2,1.89-0.2H99c4,1.29,3.38,4.18,3.38,4.18,0.3,2.89-2.78,4.08-2.78,4.08l-0.2,1.59,2.89,4.58a0.83,0.83,0,0,1,.4.79c-0.4,1.1-2,0-2,0L97.16,41c-0.3-.4-0.9.3-0.9,0.3" transform="translate(-12.74 -1.02)"/><path d="M96.36,33.47c0.1,2.19.1,5.17,0.1,5.17a1.87,1.87,0,0,0,3-.6c2.49-2.38,0-4.58-.4-5.17s-2.39-.1-2.39-0.1Z" transform="translate(-12.74 -1.02)" fill="#fff"/></g><g id="tas"><path d="M75.37,80.23a1.87,1.87,0,0,0,.89-0.8,8.56,8.56,0,0,0,2.39-.49l6.57,0.49s6.46,0.5,9.25-1.49a5.11,5.11,0,0,1,1.69.3,3.64,3.64,0,0,1,1.79.89l3.78-.1s2.19,0.69,2,2.09v1.79s-0.4,3.58.6,3.78h2.88s2.39,1.09,2.09,2.49a2.34,2.34,0,0,1-2,2.39,11.9,11.9,0,0,1-2.79.5,4.31,4.31,0,0,0-.8,2l-0.3,13s-0.2,1.39,1.89,1.2c0,0,3.08-.3,4,1.39,0,0,.79,2.89-0.8,3.39l-1.19.6-2.59.4s-1.1.1-1.19,2v3.48s0.1,2.39-1.79,2.39l-2.78.2a2.3,2.3,0,0,1-2.09.2s-16.91.3-17.51,0.1l-2,.4s-2.19,2-4,.49L72,122.21a4.84,4.84,0,0,1-1.39.1c-0.4-.1-18.7.2-18.7,0.2s-3.88.4-4.18-.9a46.42,46.42,0,0,1-.3-5.67s0-1.49-.89-1.59c0,0-3.88-.2-4-0.6,0,0-2.09-1.49-1.49-3a3.45,3.45,0,0,1,2.79-2.19s3.18,0.5,3.18-.4a5.53,5.53,0,0,0,.2-1.59s0.2-11.84.1-12.64c0,0,.3-1.49-1-1.49a3.21,3.21,0,0,1-2.29-.2s-2.39.1-2.88-1.79a2.9,2.9,0,0,1,.2-2.19s1.09-2.19,4.28-1.49c0,0,1.79.5,2-.8l-0.1-4.78s-0.4-1.29,2.09-2c0,0,3.18.89,4.18-.69,0,0,1.1-2.19,2-.7,0,0,1.89,1.79,7.06,1.59,0,0,9-.69,9.15-0.3,0,0,2.19.3,2.79,1l0.6,0.1" transform="translate(-12.74 -1.02)"/><path d="M78,119.33a3.68,3.68,0,0,1,2-.4c0.79,0.2,12.44-.1,12.44-0.1s5.07,0.4,5.87-.3l1.19-.4a2.38,2.38,0,0,0,.5-1.39c0-.8.1-3.48,0.1-3.48l0.3-1s-0.1-1,0-27.56a4.14,4.14,0,0,0-.89-3.38s0-.8.4-0.7,0.2,0.1.2,0.1,1.79-.5,2.09.2c0,0,.8,2.39.1,3.78,0,0-.2,2.89,1.29,2.89a1.89,1.89,0,0,0,1.79.3s2.59,0.3,2.59,1.1a1.45,1.45,0,0,1-1.79,1.49l-2.39.2a1.85,1.85,0,0,0-1.39,2.19c0.2,1.89-.1,15.43-0.1,15.43s0,1.59,2.49,1.49c0,0,3.08-.1,3.08.8a1.43,1.43,0,0,1-1.39,2.09s-4.18-.1-3.88,1.09A29.67,29.67,0,0,1,102,117s0.4,2.29-.1,2.69c0,0-.3,1.3-3,1.1,0,0-17.11-.1-19.8.1A1.28,1.28,0,0,1,78,119.33" transform="translate(-12.74 -1.02)" fill="#fff"/><path d="M74.87,117.44a2,2,0,0,1,1.69,1.89c0,1.59.1,2.49-.9,2.69a1.86,1.86,0,0,1-2.39-1.39c-0.3-1.29.2-2.88,1.59-3.18" transform="translate(-12.74 -1.02)" fill="#fff"/><path d="M76.86,116.64s1.79-1.19,2.49-1c0,0,9.06.6,11.84,0.1s1.09-.1,1.09-0.1,2.39,0,3.08-.9a1,1,0,0,1,1.1.5L98,116.84s0.1,1-1.59.9c0,0-16.22,0-16.71.1,0,0-3.08.49-2.78-1.2" transform="translate(-12.74 -1.02)" fill="#fff"/><path d="M53.28,81.32s0.7,0,.6,1.19l-0.2,30a3.69,3.69,0,0,1-1.4,3.28s-0.89,1.09-.89-0.6l0.4-30.64s0.1-2.29,1.49-3.28" transform="translate(-12.74 -1.02)" fill="#fff"/><path d="M51.69,81.52s-1.19,2.19-1.09,2.69l-0.1,6.67s-0.1,4.28,0,4.78-0.1,13-.1,13-0.1,2.39,0,3.18v5.37S50.2,119.63,52,119c0,0,17.51-.4,18.61-0.1,0,0,1.59.3,1,1.1,0,0,0,.69-1.09.5a135.16,135.16,0,0,1-15.72.5s-5,.3-5.27-0.3c0,0-.8-0.1-0.8-3a20.12,20.12,0,0,0-.2-3.19s0.2-1.39-2.29-1.69c0,0-3.48.6-3.58-1.49,0,0,.5-1.49,3.88-1.29,0,0,2.49.4,2-1.59l0.3-14.72s0.3-2.59-1.39-2.69a8.08,8.08,0,0,0-2.09.1s-2.88,0-2.68-1.69c0,0,1-1.79,3.88-1.39A1.93,1.93,0,0,0,48.81,86s-0.1-5.07,1.09-5.27c0,0,2.49.1,1.79,0.79" transform="translate(-12.74 -1.02)" fill="#fff"/><path d="M54.68,114.46a5,5,0,0,0,3.68,1.39L71.89,116s1.49,0.1,1.39.9c0,0-.2,1.19-2,0.8L55,117.54l-1.79.1s-1.19-.2.7-2.49l0.8-.7" transform="translate(-12.74 -1.02)" fill="#fff"/><path d="M96.46,113.16s1.19,2.29,1.79,2.59c0,0,1.09,1.29.8-1l0.2-28.65a6,6,0,0,1,0-2.58l-1.19-2.19s-1.29-1-1.29.59l-0.2,30.54-0.1.7" transform="translate(-12.74 -1.02)" fill="#fff"/><path d="M74.38,99.52a31.45,31.45,0,0,1-.2,4.68c-0.16,1.25.4,7.06-.1,10,0,0-.1,1-2.19.1,0,0-12.73.3-13.13-.1,0,0-3.48.1-3.78-1.69,0,0,.5-13.63.2-14.13,0,0-.2-7.46,0-8.16,0,0,.3-6.86.1-7.66a7.77,7.77,0,0,0-.2-2.39s0-1,1.69-.4c0,0,.6,1.09,3.88.6a18.3,18.3,0,0,0,4.68.1s5.07-.4,6.37,0a2.24,2.24,0,0,1,2.59,1.79l-0.1,6.17,0.6,2,0.7-.5,0.3-1.49,0.1-6.56a2.32,2.32,0,0,1,2-1.39,13,13,0,0,1,2.89-.1,33,33,0,0,0,7.26.2c1.49-.3,1.79,1,6.27-1.29,0,0,1.19.1,1.19,0.89,0,0-.4,8.46,0,10,0,0,0,15.52-.3,16.62l0.2,5s0.2,2.19-3.28,2.39c0,0,2.19.3-11.54-.1a10.93,10.93,0,0,0-4.58,1s-0.5-.1-0.5-1.39a62.09,62.09,0,0,0,0-9.25l-0.2-5.07-0.89.1" transform="translate(-12.74 -1.02)" fill="#fff"/><path d="M65.42,92.47s0.3,7.36,0,8.35l-0.1,1.59a3.66,3.66,0,0,0,1,1.49s0.5,1.39-.7,1.29a26.08,26.08,0,0,0-3.08-.1s-1.39,0,0-1.79a4.18,4.18,0,0,0,.4-2.49s0-8.35.2-8.85a1.35,1.35,0,0,0-.5-1.39l-1.19.1-1.49,1.4s-0.3,1.49-1-.1v-0.8l0.9-2.39,0.6-.1a6.65,6.65,0,0,0,1.69.8h4.68l1.69-.8a0.71,0.71,0,0,1,.5,1s0.3,2.29-1,2.59a2.3,2.3,0,0,1-1.19-1.39s-1.29-.69-1.4,1.6" transform="translate(-12.74 -1.02)"/><path d="M87.41,89.78a3.58,3.58,0,0,0-3.88,3.78s-0.4,2.79,3.78,4.58c0,0,3.08,1.49,2.89,3.38,0,0-.4,3.39-3.68,1.69,0,0-1.59-.79-1.49-1.69,0,0-.5-1.1-1.09-0.9,0,0-.7.2-0.4,3.48,0,0,0,1.29,1.49,0l0.8,0.19a3.5,3.5,0,0,0,5-.5,4,4,0,0,0,.7-5.07,9,9,0,0,0-3.58-3s-2.19-1-2.69-2.68c0,0,.7-3,3.38-1.39a6,6,0,0,0,1.59,1.39s0.8,0,.6-1.79l-0.2-1.49s-0.2-1.1-1.59,0c0,0-1.29.5-1.59,0" transform="translate(-12.74 -1.02)"/><path d="M75.27,87.69a2.31,2.31,0,0,1,.8,1.49,115.71,115.71,0,0,1,3.68,12.94,6.93,6.93,0,0,0,1.39,1.79c1.69,0.6,0,1.09,0,1.09a9.1,9.1,0,0,1-3-.1c-1.19-.2-0.7-0.6-0.7-0.6,0.5-.5.1-2.48,0.1-2.48a6.71,6.71,0,0,0-1-2.09c-0.4-.2-1.1.7-1.1,0.7s-1.1.4-1.19,0a2,2,0,0,0-.8-0.79c-1.19,0-1.69,3-1.69,3,0.7,2.49,0,2.09,0,2.09-0.6.8-2.49,0.2-2.49,0.2A0.51,0.51,0,0,1,69,104a1.94,1.94,0,0,0,1.39-1.39c0.5-.7,3.68-13.63,3.68-13.63,0.3-.59.5-1.79,1.19-1.29" transform="translate(-12.74 -1.02)"/><path d="M73.68,94.26c-0.1.5-.79,3.28-0.79,3.28l0.6,1s1.59,0.1,2.19.1,0.7-.49.7-1a29.7,29.7,0,0,0-1.1-3.48l-0.5-.6Z" transform="translate(-12.74 -1.02)" fill="#fff"/></g><g id="ve"><path d="M48.19,63.6s-1.09,3.48-6-.1L25.5,63.1A1.83,1.83,0,0,1,23,61.51a38.22,38.22,0,0,0,.2-5s0.1-1.29-2.09-1.29c0,0-3.38.4-3.48-2.59,0,0-.6-3.19,4.08-3.08,0,0,1.49.7,1.59-1.19,0,0-.2-12.94-0.1-13.93,0,0,.4-1.19-1.89-1.39,0,0-3.28.7-3.68-1.49,0,0-.2-3.28,2-3.48,0,0,2.69.2,3.18-.5,0,0,.6.4,0.5-2l0.1-4.08s0.3-1.09,2-1c0,0,3.08.2,3.48-.1a12.24,12.24,0,0,0,.9-1.29s1.59-.1,1.89.3c0,0,2.39,1.59,11.44,1a3.11,3.11,0,0,1,1.69.4s1.69,1.29,2.69-.1a32.81,32.81,0,0,1,6-.2s4.88,1.29,8.26-1.49l1.1,0.2s1.39,2.29,2.39,1.59c0,0,3-.3,3.48.3,0,0,1,1.49.5,5.37,0,0-.6,1.69,2.29,1.69,0,0,3.28-.6,2.88,2.49,0,0,.89,3.48-4.58,3a3.14,3.14,0,0,0-.6,1.69S69.08,46.69,69,48c0,0-.1,1.79,2.29,1.69,0,0,3.18-.2,3.28,2.69,0,0,.4,3.78-4.18,3.08,0,0-1.39.2-1.59,1.1l-0.2,5S68.68,64,65.9,63.4c-0.4,0-15.52.3-16.81-.1a1,1,0,0,0-.9.3" transform="translate(-12.74 -1.02)"/><path d="M29.38,22.61s0.2,2,.2,2.49-0.3,28.75-.3,28.75a3.42,3.42,0,0,1-1.59,3.28s-0.5.2-.6-1.2l0.2-29.85s0.2-3.68,2.09-3.48" transform="translate(-12.74 -1.02)" fill="#fff"/><path d="M26.1,57.43s0.2-28.06.1-28.56,0.1,0.4.1,0.4-0.3-4.88,1-6.86c0,0-.4-1.69-2.69.4l-0.1,4.08s0,2.29-2.09,2.19c0,0-2.39-.1-3.48,1a1.34,1.34,0,0,0,1.69,1.79s3.58,0,3.78,1.49l-0.2,15a1.82,1.82,0,0,1-2,2.49s-3.38-.2-3.28,1.89c0,0,.7,1.79,3.58,1.19a2.41,2.41,0,0,1,2,2.39v3.78s-0.2,1.49,1.79,1.59H41.82a0.74,0.74,0,0,0,.8-0.89A1.11,1.11,0,0,0,41.32,60l-12.93-.2s-2.09.7-2.29-2.39" transform="translate(-12.74 -1.02)" fill="#fff"/><path d="M28.79,57.63a0.83,0.83,0,0,0,1.09,1.1H40.13l2.78,0.59s2.89-.7,0-2.29c0,0-9.15.1-9.95-.1l-2.29-.6s-1-.4-1.89,1.29" transform="translate(-12.74 -1.02)" fill="#fff"/><path d="M45.8,59S43.91,59,44,61.51A2.14,2.14,0,0,0,46.2,63.4a2,2,0,0,0,1.59-2.29s-1.09-2.49-2-2.09" transform="translate(-12.74 -1.02)" fill="#fff"/><path d="M47.19,58a3.17,3.17,0,0,1,1.49-1s10,0.9,11.64-.3a4,4,0,0,1,1.89,0s1.49,1.2,1.49,1.89c0,0-.1.9-1.89,0.4L50,59.12s-3.08.7-2.79-1.09" transform="translate(-12.74 -1.02)" fill="#fff"/><path d="M48.78,61s0-.79,1.39-0.79l13.93-.1s1.29,0.7,1.29-1.69c0,0,.51-10.85.56-22.79,0-3.54.17-7.28,0-10.74a4.63,4.63,0,0,0-.7-1.79,1.1,1.1,0,0,1,1.69-1s1.49,0.1,1.1,2.39L68.19,28s-0.3,1.49,2.39,1.09c0,0,2.69.4,2.78,1.39,0,0,.8,2-2.39,1.79H68.68a1.64,1.64,0,0,0-.7,1.79l-0.3,14.43s-0.2,2.49,2.19,2.39c0,0,2.49-.1,3,0.7,0,0,1.69,2.49-2,2.29,0,0-2.29-.1-2.79.3,0,0-.4.5-0.7,5.17,0,0,.2,2.79-1.89,2.49,0,0-13.83.2-15.12-.1,0,0-1.39.4-1.59-.69" transform="translate(-12.74 -1.02)" fill="#fff"/><path d="M30.88,21.71l-0.3,31.94s-0.1,1.49,2.39,1.79a14.11,14.11,0,0,0,3.58,0s1.89-.1,6.76.1c0,0,1.2,1.19,1.29-.3,0,0,.79-25.87.4-31.24,0,0-.1-2.29-1.79-2.39,0,0-7.56.6-8.26,0l-3-.8s-1.19.1-1.09,0.9" transform="translate(-12.74 -1.02)" fill="#fff"/><path d="M62.42,22.91l-0.1,31.44s0.8,2.79,2.09,2.49a8.11,8.11,0,0,0,.3-1.59L65.1,25.3s-1-4.78-2.69-2.39" transform="translate(-12.74 -1.02)" fill="#fff"/><path d="M46.6,23.17s-0.3,15-.2,15.52L46.2,51.33l-0.4,4.38s0.6,0.9,1.1.3a17.12,17.12,0,0,1,5.17-.5s6.37,0.6,7.66-.4c0,0,1,.5,1.29-1.09,0,0,.4-27.86.2-28.36a29.43,29.43,0,0,0,.2-4.38s-0.1-.9-1.79-0.1c0,0,.2.8-9.25,0.5,0,0-3.58-.1-3.78,1.49" transform="translate(-12.74 -1.02)" fill="#fff"/><path d="M43.53,32.38l-0.89,1.89s-2.19,9.65-3.38,11.64c0,0-.2,2-1.89.4,0,0-3.88-12.24-4.08-12.63L32,32.77a0.69,0.69,0,0,1,.6-1.19l3.68,0.1s1.19,1-.4,2.09a51.65,51.65,0,0,0,2.29,7.66s0.6,2.29,1.29.6l2-7.06-0.6-2.09s-0.6-1,.3-1.09c0,0,2.09-.2,2.39.6" transform="translate(-12.74 -1.02)"/><path d="M49.3,34L49.2,44.51l-0.3.8s-1,1.29-.3,1.39c0,0-.9.6,6.37,0.7,0,0,2.78.5,2.09-3.08,0,0-.3-1.29-1.29.6,0,0-.3,1.59-3.88,1.1a2.39,2.39,0,0,1-.8-1.49V40.14s-0.1-1.1,1.59-1c0,0,1.89,1.19,2.19.7,0,0,.7-1.59,0-2.59a1.08,1.08,0,0,0-1,.3s-0.6,1.2-2.29.5a4.15,4.15,0,0,1-.3-2.88s-0.2-2.49,1.49-2.29c0,0,2,.4,2.19,1,0,0,.5,1.19,1-0.2L55.47,32s-0.3-.7-0.79-0.5c0,0-3.38.5-3.78,0.1l-2.69.3a1.15,1.15,0,0,0,.8,1.49,0.75,0.75,0,0,1,.3.6" transform="translate(-12.74 -1.02)"/></g></svg>