<?xml version="1.0" encoding="iso-8859-1"?>
<!-- Generator: Adobe Illustrator 16.0.0, SVG Export Plug-In . SVG Version: 6.00 Build 0)  -->
<!DOCTYPE svg PUBLIC "-//W3C//DTD SVG 1.1//EN" "http://www.w3.org/Graphics/SVG/1.1/DTD/svg11.dtd">
<svg version="1.1" id="Layer_1" xmlns="http://www.w3.org/2000/svg" xmlns:xlink="http://www.w3.org/1999/xlink" x="0px" y="0px"
	 width="192.756px" height="192.756px" viewBox="0 0 192.756 192.756" style="enable-background:new 0 0 192.756 192.756;"
	 xml:space="preserve">
<g>
	<polygon style="fill-rule:evenodd;clip-rule:evenodd;fill:#FFFFFF;" points="0,0 192.756,0 192.756,192.756 0,192.756 0,0 	"/>
	<path style="fill-rule:evenodd;clip-rule:evenodd;fill:#8891B8;" d="M84.751,50.867c-0.282,0.018-5.562-0.028-8.344,0.007
		c-0.599,0.669,0.599,1.232,0.494,2.043c-3.028,1.091-4.472-1.62-5.563-3.556c-0.071-0.493-0.862-1.32-1.039-1.778l11.354,0.018
		l0.071-27.144l-62.209-0.07l-0.141,0.316v27.32l17.99,0.071c5.879,8.59,11.583,17.286,16.97,26.123l-2.289,1.267L35.85,51.121
		l-19.592-0.017l0.053-33.675l0.528-0.246h67.895L84.751,50.867L84.751,50.867z"/>
	<path style="fill-rule:evenodd;clip-rule:evenodd;fill:#8891B8;" d="M176.498,17.217l-0.053,33.622l-19.451,0.035
		c-7.463,11.266-14.857,22.532-22.566,33.728c-1.021-0.986-1.656-2.464-1.021-3.802c7.111-11.125,14.717-21.969,22.074-32.953
		h17.215l0.529-0.089V20.457l-65.607-0.07c0,1.496-0.035,25.26,0,27.461h12.869v0.738c-2.641,3.592-4.367,7.535-6.83,11.162
		c-0.986-0.212-3.592-0.529-2.289-2.29l3.803-6.054l-0.494-0.529h-9.893l-0.527-0.738l-0.07-32.953h71.82L176.498,17.217
		L176.498,17.217z"/>
	<path style="fill-rule:evenodd;clip-rule:evenodd;fill:#1A3B73;" d="M78.414,23.555v20.947c-0.546,0-9.083,0-13.414,0.035
		c0.704,3.521,3.872,6.689,5.563,10.141c-1.937,6.512-8.168,12.322-13.941,15.983C50.707,61.93,44.968,53.41,38.877,44.537
		c-5.316-0.07-14.875-0.035-16.283-0.035l0.053-20.489l0.774-0.493h54.499L78.414,23.555L78.414,23.555z"/>
	<path style="fill-rule:evenodd;clip-rule:evenodd;fill:#1A3B73;" d="M169.668,44.502c-1.084-0.028-14.346,0-15.982,0.035
		c-7.324,10.915-14.682,21.793-22.039,32.708c-1.408-4.472-9.225,0.176-7.111-6.337c-1.199-1.866-3.381-3.521-5.564-4.049
		c-1.232-1.268-2.781-3.134-2.781-4.823c3.416-5.739,6.936-11.443,10.141-17.252l-15.455-0.017V24.013l0.492-0.493h58.301V44.502
		L169.668,44.502z"/>
	<path style="fill-rule:evenodd;clip-rule:evenodd;fill:#1A3B73;" d="M88.553,61.542c1.971-1.127,4.049-1.938,6.337-2.289
		c6.371-1.408,12.955-0.141,17.744,3.802c3.027,1.901,2.498,7.041,6.83,6.583c1.162,0.387,2.428,1.619,2.816,2.781
		c1.09,1.971-2.5,5.14,1.514,4.823c2.535-1.057,5.07,0.492,6.09,2.781c0.951,2.429,1.092,5.14,2.535,7.358
		c1.092,1.125-0.105,3.168,0.986,4.294c2.43-1.478,2.604-4.153,4.084-5.808c2.676,2.076,3.133,5.069,3.52,8.097
		c0.74,0.95,1.443,0.281,2.289,0.774c-0.035,14.611-10.844,27.636-23.307,34.22c-8.133,3.52-19.539,5.174-28.129,1.514
		c-1.69-0.246-2.712,1.197-4.049,1.76c-5.634,2.43-13.132,3.204-18.518-0.246c-7.042-4.154-8.521-12.217-7.605-20.032l1.021-3.027
		c-4.964-8.309-10.773-16.266-15.737-24.574c1.337-4.366,6.055-5.95,9.4-8.133c2.112-0.844,4.365-1.302,6.337-2.534
		c-0.845-0.739-2.078-1.127-2.535-2.289c5.175-3.943,10.35-9.013,12.921-14.927c4.646-2.324,8.132,2.816,12.181,4.295
		C86.229,61.365,87.286,61.683,88.553,61.542L88.553,61.542z"/>
	<path style="fill-rule:evenodd;clip-rule:evenodd;fill:#FFFFFF;" d="M85.279,64.323c3.274,0.282,5.914-2.465,9.365-2.535
		c5.069-0.634,11.758-1.584,14.963,3.273c0.387,1.62-0.494,2.888-1.797,3.557c-0.633,0.282-1.584,0.422-1.76,1.268l0.492,0.528
		l11.16,1.268c1.479,0.387,1.443,2.183,1.021,3.274l-0.773,0.774l-16.725-0.774c-0.949,0.492-1.689,1.513-2.533,2.288
		c-0.389,2.323,0.387,4.4,2.287,5.562c2.008,0.177,3.908,0.74,6.092,0.529c0.809,2.394-1.127,4.471-3.062,5.808
		c-1.164,0.599-2.5,0.81-3.557,1.796c0.949,0.844,2.711,0.528,3.803,0.247c8.096-1.832,14.504-11.513,23.588-7.113
		c1.936,1.479,1.619,4.226,1.268,6.337c-2.887,8.204-13.941,1.938-19.504,6.337c-7.992,6.479-11.268,16.195-20.033,22.322
		c-3.873,3.062-8.661,4.646-13.942,3.556c-3.661-0.599-6.619-3.732-7.851-7.112c-3.31-7.956,4.436-12.569,6.337-19.011
		c0.141-0.775-0.176-1.303-0.774-1.76c-1.021,0.176-0.916,1.302-1.268,2.005c-2.218,3.346-6.055,4.93-8.097,8.134
		c-4.19-6.514-8.45-12.957-12.428-19.54c-0.387-2.535,2.604-3.45,4.049-4.787c2.71-1.408,5.597-2.429,8.625-3.063
		c-1.268,4.224-1.338,10.104,2.535,12.919c0.916-0.915,0.106-2.393,0-3.52c0.035-6.056,3.098-11.301,8.379-14.716
		c2.746-1.198,5.386-2.677,8.591-2.781l0.528-0.775c-2.007-1.902-4.155-3.451-6.584-4.295c-2.042,2.535-3.696,5.914-6.865,7.358
		c-1.867,0.035-3.767,0.104-5.07-1.268c3.45-3.274,6.584-7.781,9.646-11.407C79.188,59.5,81.864,62.773,85.279,64.323L85.279,64.323
		z"/>
	<path style="fill-rule:evenodd;clip-rule:evenodd;fill:#1A3B73;" d="M100.453,72.175c-2.605,1.759-3.908,4.858-3.273,7.851
		c0.809,0.669,1.268,1.479,1.76,2.288c-1.443,0.598-2.817-0.599-4.049-1.267c-1.057-1.373-2.676-2.817-2.007-4.578
		c1.091-2.745,3.555-4.119,6.337-4.541C99.607,71.998,100.207,71.716,100.453,72.175L100.453,72.175z"/>
	<path style="fill-rule:evenodd;clip-rule:evenodd;fill:#FFFFFF;" d="M103.762,77.491c-0.527,0.95-1.09,2.183-0.492,3.309
		c-0.773,0.07-0.281-0.81-0.773-1.021C102.742,78.934,102.672,77.525,103.762,77.491L103.762,77.491z"/>
	<path style="fill-rule:evenodd;clip-rule:evenodd;fill:#FFFFFF;" d="M114.148,78.019c-3.064,0.316-6.057,5.879-8.873,1.761
		c-0.598-1.338,0.986-1.409,1.516-2.043C109.326,77.667,111.719,77.878,114.148,78.019L114.148,78.019z"/>
	<path style="fill-rule:evenodd;clip-rule:evenodd;fill:#FFFFFF;" d="M117.951,78.265c-1.654,1.478-3.557,3.309-6.092,3.273
		C113.762,80.061,115.943,79.356,117.951,78.265L117.951,78.265z"/>
	<path style="fill-rule:evenodd;clip-rule:evenodd;fill:#FFFFFF;" d="M121.752,79.004c-0.211,0.81-0.633,1.76-1.514,2.042h-1.76
		C118.9,79.814,120.133,78.441,121.752,79.004L121.752,79.004z"/>
	<path style="fill-rule:evenodd;clip-rule:evenodd;fill:#FFFFFF;" d="M137.982,93.967c-1.373,0.387-3.203,0.387-4.576,0
		c1.76-1.127,2.992-2.923,4.084-4.542C138.404,90.375,137.807,92.453,137.982,93.967L137.982,93.967z"/>
	<path style="fill-rule:evenodd;clip-rule:evenodd;fill:#FFFFFF;" d="M139.004,96.502c-1.232,11.829-10.352,23.552-21.793,27.391
		c-5.176,1.936-11.619,0.844-16.477-1.021c-1.76,2.147-3.908,4.365-6.337,5.316c6.618-8.062,10.421-17.287,15.21-26.124
		C116.541,93.368,128.898,97.593,139.004,96.502L139.004,96.502z"/>
	<path style="fill-rule:evenodd;clip-rule:evenodd;fill:#8891B8;" d="M118.971,132.481c0.74,1.797-0.457,4.578,1.021,5.846h23.799
		l0.035,37.229l-60.342,0.018l-33.446-0.018v-37.494l22.813,0.018c0.035-1.69,1.901-1.162,3.028-1.267
		c1.231,1.267-0.212,2.71,0.246,4.294l-22.99-0.052l-0.069,0.827v29.889l0.527,0.529h87.417l-0.035-30.665l-24.82-0.053l0.035-8.08
		C116.965,132.834,117.986,132.729,118.971,132.481L118.971,132.481z"/>
	<path style="fill-rule:evenodd;clip-rule:evenodd;fill:#1A3B73;" d="M112.635,134.278v10.121l0.773,0.018h23.801l0.527,0.158
		v24.381l-0.527,0.034H56.656c-0.035-0.21,0.035-24.238,0-24.855l22.778,0.036c0.528-2.288-0.036-5.07,0.494-7.357
		c4.189-0.036,7.745-1.62,11.16-3.556C97.672,135.088,105.699,135.65,112.635,134.278L112.635,134.278z"/>
</g>
</svg>
