<svg xmlns="http://www.w3.org/2000/svg" xmlns:xlink="http://www.w3.org/1999/xlink" version="1.1" id="Layer_1" x="0" y="0" viewBox="0 0 181.9 70.9" xml:space="preserve" enable-background="new 0 0 181.933 70.909">
  <path d="M181.9 47.4c-1.4-21.7-31.8-27.5-45.2-15.1 0.7-9.4-3.5-18.8-13.3-22.3 -7.2-2.5-15.2 1.1-20.3 6 -1.1 1-2 2.2-2.7 3.3C98.3 9.1 90.5 0.6 78.3 0 63.3-0.7 55.6 14.3 56.9 27.5c-4-5.9-10-9.8-18-8.6 -4.8 0.7-9.2 3.3-12.5 6.9 -3.1 3.2-5.1 7.4-5.7 11.8 -8.8-2.8-20.1-0.3-20.6 10.6 -0.7 14.2 14.7 20.9 26.7 21.3 1.6 0.1 3.2-0.1 4.9-0.3 6.4 0.6 13.4-1.3 20-4.2 0.8 0.2 1.6 0.5 2.3 0.6 5.6 1.3 11.3 0.6 16.6-1.5 4.3 1.9 8.8 3.3 12.7 4.3 17.4 4.7 37.8 3.3 51.8-8.2C149.1 72.9 183.3 68.5 181.9 47.4z" fill="#FAFAE4"/>
</svg>
