<svg xmlns="http://www.w3.org/2000/svg" xmlns:xlink="http://www.w3.org/1999/xlink" version="1.1" x="0" y="0" viewBox="0 0 178.5 511.6" xml:space="preserve">
<style>

/* Animation Styles added by Ed Hebert */

#lights rect {
  fill:#E9EB89;

  animation: light_pulse 6s linear infinite;
  -webkit-animation: light_pulse 6s linear infinite;
  -moz-animation: light_pulse 6s linear infinite;   
}

@-webkit-keyframes light_pulse {
  0%{
    opacity: 1;
  }

  45%{
    opacity: 1;
  }

  50% {
    opacity: 0.2;
  }

  95% {
  opacity: 0.2;
  }

  100%{
    opacity: 1;
  }
}

@-moz-keyframes light_pulse {
  0%{
    opacity: 1;
  }

  45%{
    opacity: 1;
  }

  50% {
    opacity: 0.2;
  }

  95% {
  opacity: 0.2;
  }

  100%{
    opacity: 1;
  }
}

</style>  <g id="lighthouse">
    <g id="XMLID_1_">
      <path d="M89.3 409.8c33.9 0 66.5-1.1 76.3-1.5l-3.8-41.3c-5 0.2-15.7 0.5-28.6 0.8 -13 0.3-28.2 0.6-42.4 0.6h-0.6c-0.3 0-0.6 0-0.9 0 -0.3 0-0.6 0-0.9 0h-0.6c-28.4 0-61.1-1-71.1-1.4l-3.8 41.3C22.8 408.7 55.3 409.8 89.3 409.8zM171.7 442l6.5 61.2c0 0-21 8.1-89 8.1v0c-0.1 0-0.3 0-0.4 0 -0.1 0-0.3 0-0.4 0v0c-68-0.1-88.1-8.1-88.1-8.1l6.5-61.4v0c-0.3 0-0.4 0-0.4 0l3.4-32.8 3.9-42.2 3.5-38.1 11-120.8c-0.1 0-0.2 0-0.2 0l3.5-37.9c0 0 0.1 0 0.2 0l2.5-27.3h0.5c-9.6-0.1-17.4-7.9-17.4-17.6v-23.1c-1.5-0.8-2.6-2.3-2.6-4.2 0-2.6 2.1-4.7 4.7-4.7s4.7 2.1 4.7 4.7c0 1.8-1 3.4-2.5 4.2v23.1h12.8l0.1-56.6c0 0-1.8-14.2 5.9-22.1 0 0 5.4-7.1 23.1-12.9 15.2-5 19.3-10.5 20.1-12 -3.5-1.9-5.8-5.7-5.8-9.9 0-3.1 1.3-6 3.4-8.1 2.1-2.1 5-3.3 8.1-3.3 6.3 0 11.6 5.1 11.6 11.4 0 4.3-2.4 8-5.8 9.9 0.9 1.5 5 7 20.1 12 17.7 5.8 23.1 12.9 23.1 12.9 7.7 7.9 6 22.1 6 22.1l0.1 56.6h12.8v-23.1c-1.5-0.8-2.6-2.3-2.6-4.2 0-2.6 2.1-4.7 4.7-4.7s4.7 2.1 4.7 4.7c0 1.8-1 3.4-2.6 4.2v23.1c0 9.7-7.8 17.5-17.4 17.6h0.5l2.5 27.3c0.1 0 0.1 0 0.1 0l3.5 37.9c0 0-0.1 0-0.2 0l11 120.8 3.5 38.1 3.8 42.2 3.4 32.8c0 0-0.1 0-0.4 0v0c0 0-4.5 0.2-11.9 0.4L171.7 442zM174.9 501l-5.9-55.9 -80.1 1.4h-0.1 0l-79.2-1.5 -5.9 56.1c6.2 1.7 26.3 6.3 71 7.1v-47.3h29.4v47.3C148.2 507.2 168.6 502.7 174.9 501zM158.4 328.9l-3.8-41.5c-4.3 0.2-13.3 0.6-24.7 0.9 -11.4 0.3-25.2 0.6-39.2 0.6h-0.6c-0.3 0-0.5 0-0.8 0 -0.3 0-0.5 0-0.8 0H88c-28 0-55.4-1.1-64.1-1.5l-3.8 41.5c8.7 0.4 35.4 1.5 68.1 1.5h2C123 330.4 149.6 329.3 158.4 328.9zM151.1 249.6l-3.8-41.4c-4 0.2-11.5 0.6-21.4 0.9 -9.9 0.3-22.1 0.6-35.5 0.6h-0.7c-0.1 0-0.3 0-0.4 0 -0.1 0-0.3 0-0.4 0H88.5c-26.9 0-49.3-1-57.3-1.4l-3.8 41.4c7.4 0.4 29 1.5 61.4 1.5h1C122.1 251 143.8 250 151.1 249.6zM143.9 170.3l-2.2-24.5 -52.4 0 -52.4 0 -2.2 24.5c3.3 0.2 9.3 0.6 18.3 0.9 9 0.3 21 0.5 36.3 0.5C120 171.7 137.2 170.8 143.9 170.3zM135.7 116.7V97.9h-23.4v18.8H135.7zM135.7 89.5v-20.9h-23.4v20.9H135.7zM103.8 116.7V97.9H74.7v18.8H103.8zM103.8 89.5v-20.9H74.7v20.9H103.8zM66.3 116.7V97.9H42.9v18.8H66.3zM66.3 89.5v-20.9H42.9v20.9H66.3z" fill="#494C4B"/>
      <path d="M169 445.1l6 55.9c-6.3 1.7-26.7 6.2-71 7.1v-47.3H74.5v47.3c-44.6-0.8-64.8-5.3-71-7.1l6-56.1 79.3 1.5h0.1 0.1L169 445.1zM161.8 367l3.8 41.3c-9.9 0.4-42.4 1.5-76.3 1.5s-66.5-1.1-76.3-1.5l3.8-41.3c10 0.3 42.7 1.3 71.1 1.4h0.6c0.3 0 0.6 0 0.9 0 0.3 0 0.6 0 0.9 0h0.6c14.2 0 29.4-0.3 42.4-0.6C146.2 367.5 156.8 367.1 161.8 367zM104 388.1c0-8.1-6.6-14.7-14.7-14.7 -8.1 0-14.7 6.6-14.7 14.7 0 8.1 6.6 14.7 14.7 14.7C97.4 402.8 104 396.2 104 388.1zM154.6 287.5l3.8 41.5c-8.7 0.4-35.4 1.5-68.1 1.5h-2c-32.8 0-59.4-1.1-68.1-1.5l3.8-41.5c8.7 0.4 36.1 1.5 64.1 1.5h0.4c0.3 0 0.6 0 0.8 0 0.3 0 0.6 0 0.8 0h0.6c14 0 27.8-0.3 39.2-0.6C141.3 288 150.3 287.7 154.6 287.5zM104 310.8c0-8.1-6.6-14.7-14.7-14.7 -8.1 0-14.7 6.6-14.7 14.7 0 8.1 6.6 14.7 14.7 14.7C97.4 325.5 104 319 104 310.8zM147.3 208.2l3.8 41.4c-7.4 0.4-29 1.5-61.4 1.5h-1c-32.3 0-54-1-61.4-1.5l3.8-41.4c8.1 0.4 30.4 1.4 57.3 1.5h0.3c0.1 0 0.3 0 0.4 0 0.2 0 0.3 0 0.4 0h0.7c13.4 0 25.6-0.3 35.5-0.6C135.8 208.7 143.3 208.4 147.3 208.2zM104 229.3c0-8.1-6.6-14.7-14.7-14.7 -8.1 0-14.7 6.6-14.7 14.7 0 8.1 6.6 14.7 14.7 14.7C97.4 244 104 237.4 104 229.3zM141.7 145.8l2.2 24.5c-6.6 0.5-23.9 1.4-54.6 1.4 -15.3 0-27.3-0.2-36.3-0.5 -9-0.3-15-0.6-18.3-0.9l2.2-24.5 52.4 0L141.7 145.8z" fill="#FFF"/>
      <path d="M89.3 214.6c8.1 0 14.7 6.6 14.7 14.7 0 8.1-6.6 14.7-14.7 14.7 -8.1 0-14.7-6.6-14.7-14.7C74.5 221.2 81.1 214.6 89.3 214.6zM99.9 229.3c0-5.9-4.8-10.6-10.6-10.6s-10.6 4.8-10.6 10.6 4.8 10.6 10.6 10.6S99.9 235.2 99.9 229.3zM89.3 296.1c8.1 0 14.7 6.6 14.7 14.7 0 8.1-6.6 14.7-14.7 14.7 -8.1 0-14.7-6.6-14.7-14.7C74.5 302.7 81.1 296.1 89.3 296.1zM99.9 310.8c0-5.9-4.8-10.6-10.6-10.6s-10.6 4.8-10.6 10.6c0 5.9 4.8 10.6 10.6 10.6S99.9 316.7 99.9 310.8zM89.3 373.4c8.1 0 14.7 6.6 14.7 14.7 0 8.1-6.6 14.7-14.7 14.7 -8.1 0-14.7-6.6-14.7-14.7C74.5 380 81.1 373.4 89.3 373.4zM99.9 388.1c0-5.8-4.8-10.6-10.6-10.6s-10.6 4.8-10.6 10.6c0 5.9 4.8 10.6 10.6 10.6S99.9 393.9 99.9 388.1z" fill="#494C4B"/>
      <path class="windows" d="M89.3 218.7c5.9 0 10.6 4.8 10.6 10.6s-4.8 10.6-10.6 10.6 -10.6-4.8-10.6-10.6S83.4 218.7 89.3 218.7zM89.3 300.2c5.9 0 10.6 4.8 10.6 10.6 0 5.9-4.8 10.6-10.6 10.6s-10.6-4.8-10.6-10.6C78.6 305 83.4 300.2 89.3 300.2zM89.3 377.5c5.9 0 10.6 4.8 10.6 10.6 0 5.9-4.8 10.6-10.6 10.6s-10.6-4.8-10.6-10.6C78.6 382.2 83.4 377.5 89.3 377.5z" fill="#AFE0E7"/>
    </g>
  </g>
  <g id="lights">
    <rect x="112.2" y="97.9" width="23.4" height="18.8"/>
    <rect x="112.2" y="68.6" width="23.4" height="20.9"/>
    <rect x="74.7" y="97.9" width="29.1" height="18.8"/>
    <rect x="74.7" y="68.6" width="29.1" height="20.9"/>
    <rect x="42.9" y="97.9" width="23.4" height="18.8"/>
    <rect x="42.9" y="68.6" width="23.4" height="20.9"/>
  </g>
</svg>
