<svg xmlns="http://www.w3.org/2000/svg" version="1.1" x="0" y="0" viewBox="0 0 389.5 369.2" xml:space="preserve"><style>.s0{fill:#FFF;}.s1{fill:#FEBC12;}.s2{fill:#C5E5D5;}</style><path d="M327.7 312c0.7 1 0.6 2.3-0.4 3 -0.6 0.4-1.1 0.9-1.8 1.3 -0.4 0.3-0.8 0.4-1.3 0.4 -0.7 0-1.3-0.3-1.7-0.9 -0.7-1-0.5-2.3 0.5-3 0.6-0.4 1.2-0.9 1.7-1.3C325.6 310.9 326.9 311 327.7 312zM315.3 320.6c0.6 1 0.3 2.4-0.7 3 -0.6 0.4-1.2 0.7-1.9 1.1 -0.3 0.2-0.7 0.3-1.1 0.3 -0.7 0-1.4-0.4-1.9-1.1 -0.6-1-0.3-2.3 0.8-3v0c0.6-0.4 1.2-0.7 1.8-1.1C313.3 319.3 314.7 319.6 315.3 320.6zM319 271.9c0.1 1.2-0.8 2.2-2 2.3 0 0-0.1 0-0.1 0 -1.1 0-2.1-0.9-2.2-2 0-0.7-0.1-1.4-0.1-2.1 -0.1-1.2 0.8-2.2 2-2.3 1.2-0.1 2.2 0.8 2.3 2C318.9 270.4 319 271.1 319 271.9zM317.1 282.8c1.2 0.1 2.1 1.1 2.1 2.3 0 0.7-0.1 1.5-0.1 2.2 -0.1 1.1-1 2-2.1 2 0 0-0.1 0-0.1 0 -1.2-0.1-2.1-1.1-2-2.3 0-0.7 0.1-1.4 0.1-2.1C314.9 283.6 315.9 282.7 317.1 282.8zM315.7 297.8c1.2 0.2 2 1.3 1.8 2.5 -0.1 0.7-0.2 1.5-0.4 2.2 -0.2 1-1.1 1.8-2.1 1.8 -0.1 0-0.2 0-0.4 0 -1.2-0.2-1.9-1.3-1.7-2.5h0c0.1-0.7 0.2-1.4 0.4-2.1C313.4 298.4 314.5 297.6 315.7 297.8zM312.7 312.6c1.2 0.3 1.8 1.5 1.5 2.7 -0.2 0.7-0.4 1.4-0.6 2.1 -0.3 1-1.1 1.6-2.1 1.6 -0.2 0-0.4 0-0.6-0.1 -1.1-0.3-1.8-1.5-1.5-2.6 0.2-0.7 0.4-1.4 0.6-2C310.4 313 311.5 312.3 312.7 312.6zM308.5 327.1c1.1 0.4 1.7 1.6 1.3 2.8 -0.5 1.4-0.8 2.1-0.8 2.1 -0.3 0.9-1.1 1.4-2 1.4 -0.3 0-0.5 0-0.8-0.1 -1.1-0.4-1.7-1.7-1.2-2.8 0 0 0.3-0.7 0.7-2C306.1 327.3 307.4 326.7 308.5 327.1zM302.2 328.1c0.5 1.1 0.1 2.4-1 2.9 -0.6 0.3-1.3 0.6-1.9 1 -0.3 0.2-0.6 0.2-0.9 0.2 -0.8 0-1.6-0.4-1.9-1.2 -0.5-1.1-0.1-2.4 1-2.9 0.7-0.3 1.3-0.6 1.9-0.9C300.3 326.6 301.6 327 302.2 328.1zM288.5 334.5c0.5 1.1-0.1 2.4-1.2 2.8 -0.7 0.3-1.3 0.6-2 0.8 -0.3 0.1-0.5 0.2-0.8 0.2 -0.8 0-1.6-0.5-2-1.3 -0.4-1.1 0.1-2.4 1.2-2.8 0.7-0.3 1.3-0.5 2-0.8C286.8 332.9 288.1 333.4 288.5 334.5zM274.5 340c0.4 1.1-0.2 2.4-1.3 2.7 -0.7 0.2-1.4 0.5-2 0.7 -0.2 0.1-0.5 0.1-0.7 0.1 -0.9 0-1.7-0.6-2-1.5 -0.4-1.1 0.2-2.3 1.4-2.7 0.7-0.2 1.4-0.5 2-0.7C272.9 338.3 274.1 338.9 274.5 340zM260.1 344.6c0.3 1.1-0.3 2.3-1.5 2.6 -0.7 0.2-1.4 0.4-2.1 0.6 -0.2 0.1-0.4 0.1-0.6 0.1 -0.9 0-1.8-0.6-2.1-1.6 -0.3-1.1 0.4-2.3 1.5-2.6 0.7-0.2 1.4-0.4 2.1-0.6C258.6 342.8 259.8 343.5 260.1 344.6zM245.5 348.4c0.3 1.2-0.5 2.3-1.6 2.6 -0.7 0.2-1.4 0.3-2.1 0.5 -0.1 0-0.3 0.1-0.4 0.1 -1 0-1.9-0.7-2.1-1.7 -0.2-1.2 0.5-2.3 1.7-2.6 0.7-0.1 1.4-0.3 2.1-0.5C244.1 346.5 245.3 347.2 245.5 348.4zM230.7 351.4c0.2 1.2-0.6 2.3-1.8 2.5 -0.7 0.1-1.4 0.2-2.1 0.4 -0.1 0-0.2 0-0.3 0 -1 0-1.9-0.7-2.1-1.8 -0.2-1.2 0.6-2.3 1.8-2.5 0.7-0.1 1.4-0.2 2.1-0.3C229.4 349.4 230.5 350.2 230.7 351.4zM124.1 349.2c1.2 0.3 1.9 1.4 1.7 2.6 -0.2 1-1.1 1.7-2.1 1.7 -0.1 0-0.3 0-0.4 0 -0.7-0.1-1.4-0.3-2.1-0.4 -1.2-0.3-1.9-1.4-1.6-2.6 0.3-1.2 1.4-1.9 2.6-1.7C122.7 348.9 123.4 349 124.1 349.2zM109.5 345.7c1.2 0.3 1.8 1.5 1.5 2.7 -0.3 1-1.1 1.6-2.1 1.6 -0.2 0-0.4 0-0.6-0.1 -0.7-0.2-1.4-0.4-2.1-0.6 -1.1-0.3-1.8-1.5-1.5-2.7 0.3-1.1 1.5-1.8 2.7-1.5C108.2 345.3 108.8 345.5 109.5 345.7zM95.3 341.3c1.1 0.4 1.7 1.6 1.3 2.7 -0.3 0.9-1.1 1.5-2 1.5 -0.2 0-0.5 0-0.7-0.1 -0.7-0.2-1.4-0.5-2-0.7 -1.1-0.4-1.7-1.6-1.3-2.7 0.4-1.1 1.6-1.7 2.8-1.3C93.9 340.8 94.6 341 95.3 341.3zM81.3 335.9c1.1 0.5 1.6 1.7 1.2 2.8 -0.3 0.8-1.1 1.3-2 1.3 -0.3 0-0.6-0.1-0.8-0.2 -0.7-0.3-1.3-0.6-2-0.8 -1.1-0.5-1.6-1.7-1.1-2.8 0.5-1.1 1.7-1.6 2.8-1.1C80 335.4 80.6 335.7 81.3 335.9zM67.7 329.7c1.1 0.5 1.5 1.8 1 2.9 -0.4 0.8-1.1 1.2-1.9 1.2 -0.3 0-0.6-0.1-0.9-0.2 -0.7-0.3-1.3-0.6-1.9-1 -1.1-0.5-1.5-1.8-0.9-2.9 0.5-1.1 1.8-1.5 2.9-0.9C66.4 329.1 67 329.4 67.7 329.7zM54.5 322.7c1 0.6 1.4 1.9 0.8 2.9 -0.4 0.7-1.1 1.1-1.9 1.1 -0.4 0-0.7-0.1-1.1-0.3 -0.6-0.4-1.3-0.7-1.9-1.1 -1-0.6-1.4-1.9-0.7-2.9 0.6-1 1.9-1.4 2.9-0.7C53.3 321.9 53.9 322.3 54.5 322.7zM38.4 327.1c1.1 0.4 1.7 1.6 1.3 2.8 -0.5 1.4-0.8 2.1-0.8 2.1 -0.3 0.9-1.1 1.4-2 1.4 -0.3 0-0.5 0-0.8-0.1 -1.1-0.4-1.7-1.7-1.2-2.8 0 0 0.3-0.7 0.7-2C36 327.3 37.3 326.7 38.4 327.1zM30 305.8c0.9 0.8 1 2.1 0.3 3 -0.4 0.5-1 0.8-1.6 0.8 -0.5 0-1-0.2-1.4-0.5 -1.1-0.9-1.7-1.5-1.7-1.5 -0.9-0.8-0.9-2.2-0.1-3 0.8-0.9 2.2-0.9 3-0.1C28.4 304.4 28.9 304.9 30 305.8zM42.6 312.6c1.1 0.3 1.8 1.5 1.5 2.6 -0.2 0.7-0.4 1.4-0.5 2.1 -0.3 1-1.1 1.6-2.1 1.6 -0.2 0-0.4 0-0.6-0.1 -0.2 0-0.3-0.1-0.4-0.2 -0.4 0-0.8-0.1-1.1-0.4 -0.6-0.4-1.2-0.8-1.8-1.2 -1-0.7-1.2-2-0.5-3 0.7-1 2-1.2 3-0.5 0.1 0 0.1 0.1 0.1 0.1C40.7 312.8 41.7 312.3 42.6 312.6zM45.6 297.8c1.2 0.2 2 1.3 1.8 2.5 -0.1 0.7-0.2 1.5-0.4 2.2 -0.2 1-1.1 1.8-2.1 1.8 -0.1 0-0.3 0-0.4 0 -1.2-0.2-1.9-1.3-1.7-2.5 0.1-0.7 0.2-1.4 0.4-2.1C43.3 298.4 44.4 297.6 45.6 297.8zM47 282.8c1.2 0.1 2.1 1.1 2.1 2.3 0 0.7-0.1 1.5-0.1 2.2 -0.1 1.1-1 2-2.1 2 0 0-0.1 0-0.1 0 -1.2-0.1-2.1-1.1-2-2.3 0-0.7 0.1-1.4 0.1-2.1C44.8 283.6 45.8 282.7 47 282.8zM48.9 271.9c0.1 1.2-0.9 2.2-2 2.3 0 0-0.1 0-0.1 0 -1.1 0-2.1-0.9-2.2-2.1 0-0.7-0.1-1.4-0.1-2.1 -0.1-1.2 0.8-2.2 2-2.3 1.2-0.1 2.2 0.8 2.3 2C48.9 270.4 48.9 271.1 48.9 271.9zM47.5 256.7c0.2 1.2-0.7 2.3-1.8 2.4 -0.1 0-0.2 0-0.3 0 -1.1 0-2-0.8-2.1-1.9 -0.1-0.7-0.2-1.4-0.3-2.1 -0.2-1.2 0.6-2.3 1.8-2.4 1.2-0.2 2.3 0.6 2.5 1.8C47.3 255.2 47.4 256 47.5 256.7zM91.5 218.9c0.4 1.1-0.2 2.4-1.4 2.7 -0.7 0.2-1.4 0.5-2 0.7 -0.2 0.1-0.5 0.1-0.7 0.1 -0.9 0-1.7-0.6-2-1.4 -0.4-1.1 0.2-2.3 1.3-2.7 0.7-0.2 1.4-0.5 2.1-0.7C89.9 217.2 91.2 217.8 91.5 218.9z" fill="#FFF"/><path d="M389.5 306.7l-27.5 27.5h-44.8c-32.4 21.3-83 35-140 35C79.4 369.2 0 328.7 0 278.7c0-44.4 62.8-81.4 145.5-89v-49.6c0-7.1 5.8-12.9 12.9-12.9h21.6v-25.4c0-3.7 3-6.7 6.7-6.7 3.7 0 6.7 3 6.7 6.7v25.4h10.2V36.6h-48.1c-7.1 0-12.9-5.8-12.9-12.9V12.9c0-7.1 5.8-12.9 12.9-12.9h54.6c7.1 0 12.9 5.8 12.9 12.9v8.1c0.5 1.1 0.7 2.2 0.7 3.4v102.7h0.7c7.1 0 12.9 5.8 12.9 12.9v53.5c33.9 6.3 63.1 17.6 83.8 32.3h40.9l27.5 27.5 -41.2 1.7c4 7.5 6.1 15.5 6.1 23.6 0 0.1 0 0.1 0 0.2v1.6h-0.1c-0.3 8.5-2.9 16.7-7.5 24.5L389.5 306.7zM334.5 256.5c0.8-0.9 0.8-2.2-0.1-3 0 0-0.6-0.5-1.7-1.5 -0.9-0.8-2.3-0.7-3 0.3 -0.8 0.9-0.6 2.3 0.3 3 1.1 0.9 1.6 1.4 1.6 1.4 0.4 0.4 1 0.6 1.5 0.6C333.5 257.2 334.1 256.9 334.5 256.5zM327.3 315c1-0.7 1.1-2.1 0.4-3 -0.7-0.9-2.1-1.1-3-0.4 -0.5 0.4-1.1 0.8-1.7 1.3 -1 0.7-1.2 2.1-0.5 3 0.4 0.6 1.1 0.9 1.8 0.9 0.4 0 0.9-0.1 1.3-0.4C326.1 315.9 326.7 315.4 327.3 315zM322.8 247c0.7-1 0.5-2.3-0.5-3 -0.6-0.4-1.2-0.8-1.8-1.2 -1-0.7-2.3-0.4-3 0.6 -0.7 1-0.4 2.3 0.6 3 0.6 0.4 1.2 0.8 1.8 1.2 0.4 0.3 0.8 0.4 1.2 0.4C321.7 247.9 322.3 247.6 322.8 247zM319.1 285c0.1-1.2-0.9-2.2-2-2.2 -1.2-0.1-2.2 0.9-2.3 2.1 0 0.7-0.1 1.4-0.1 2.1 -0.1 1.2 0.8 2.2 2 2.3 0.1 0 0.1 0 0.1 0 1.1 0 2.1-0.9 2.2-2C319.1 286.5 319.1 285.7 319.1 285zM317 274.1c1.2 0 2.1-1.1 2.1-2.2 0-0.7-0.1-1.5-0.1-2.2 -0.1-1.2-1.1-2.1-2.3-2 -1.2 0.1-2.1 1.1-2 2.3 0.1 0.7 0.1 1.4 0.1 2.1 0.1 1.2 1 2.1 2.2 2.1C316.9 274.1 316.9 274.1 317 274.1zM315.8 259.1c1.2-0.1 2-1.2 1.9-2.4 -0.1-0.7-0.2-1.4-0.3-2.2 -0.2-1.2-1.3-2-2.4-1.8 -1.2 0.2-2 1.3-1.8 2.4 0.1 0.7 0.2 1.4 0.3 2.1 0.2 1.1 1.1 1.9 2.1 1.9C315.6 259.1 315.7 259.1 315.8 259.1zM317.5 300.3c0.2-1.2-0.6-2.3-1.8-2.5 -1.2-0.2-2.3 0.6-2.5 1.8 -0.1 0.7-0.2 1.4-0.4 2.1h0c-0.2 1.2 0.6 2.3 1.7 2.5 0.1 0 0.3 0 0.4 0 1 0 1.9-0.7 2.1-1.8C317.2 301.7 317.3 301 317.5 300.3zM314.6 323.6c1-0.6 1.3-1.9 0.7-3 -0.6-1-1.9-1.3-3-0.7 -0.6 0.4-1.2 0.7-1.8 1.1V321c-1 0.6-1.4 1.9-0.7 3 0.4 0.7 1.1 1.1 1.9 1.1 0.4 0 0.8-0.1 1.1-0.3C313.3 324.3 314 324 314.6 323.6zM313.4 244.2c1.2-0.3 1.9-1.4 1.7-2.6 -0.1-0.7-0.3-1.4-0.5-2.1 -0.3-1.2-1.4-1.9-2.6-1.6 -1.2 0.3-1.9 1.4-1.6 2.6 0.2 0.7 0.3 1.4 0.5 2.1 0.2 1 1.1 1.7 2.1 1.7C313.1 244.3 313.2 244.2 313.4 244.2zM314.2 315.2c0.3-1.2-0.4-2.3-1.5-2.6 -1.2-0.3-2.3 0.4-2.6 1.6 -0.2 0.7-0.4 1.4-0.5 2.1 -0.3 1.2 0.4 2.3 1.5 2.7 0.2 0.1 0.4 0.1 0.6 0.1 1 0 1.8-0.6 2.1-1.6C313.9 316.6 314.1 315.9 314.2 315.2zM309.7 229.6c1.1-0.4 1.7-1.6 1.4-2.7 -0.1-0.4-0.2-0.6-0.2-0.6 -0.4-1.1-1.6-1.7-2.7-1.3 -1.1 0.4-1.7 1.6-1.3 2.8 0 0 0.1 0.2 0.2 0.5 0.3 0.9 1.1 1.5 2 1.5C309.2 229.7 309.5 229.6 309.7 229.6zM310.2 238.7c0.6-1 0.3-2.4-0.8-3 -0.6-0.4-1.2-0.7-1.9-1.1 -1-0.6-2.3-0.2-2.9 0.8 -0.6 1-0.2 2.3 0.8 3 0.6 0.4 1.2 0.7 1.8 1.1 0.4 0.2 0.7 0.3 1.1 0.3C309.1 239.7 309.8 239.3 310.2 238.7zM309.8 329.8c0.4-1.1-0.2-2.3-1.3-2.7 -1.1-0.4-2.4 0.2-2.8 1.3 -0.4 1.3-0.7 2-0.7 2 -0.4 1.1 0.1 2.4 1.2 2.8 0.3 0.1 0.5 0.2 0.8 0.2 0.9 0 1.7-0.5 2-1.4C309 331.9 309.3 331.2 309.8 329.8zM301.2 331c1.1-0.5 1.5-1.8 1-2.9 -0.5-1.1-1.8-1.5-2.9-1 -0.6 0.3-1.3 0.6-1.9 0.9 -1 0.5-1.5 1.8-1 2.9 0.4 0.8 1.1 1.2 1.9 1.2 0.3 0 0.6-0.1 1-0.2C299.9 331.6 300.6 331.3 301.2 331zM297 231.3c0.5-1.1 0.1-2.4-0.9-2.9 -0.6-0.3-1.3-0.6-1.9-1 -1.1-0.5-2.4-0.1-2.9 1 -0.5 1.1-0.1 2.4 1 2.9 0.6 0.3 1.3 0.6 1.9 1 0.3 0.2 0.6 0.2 1 0.2C295.9 232.4 296.6 232 297 231.3zM300.8 268.6c0-15.2-12.3-27.5-27.5-27.5 -15.2 0-27.5 12.3-27.5 27.5 0 15.2 12.3 27.5 27.5 27.5C288.5 296.1 300.8 283.8 300.8 268.6zM287.4 337.3c1.1-0.4 1.6-1.7 1.2-2.8 -0.5-1.1-1.7-1.6-2.8-1.1 -0.6 0.3-1.3 0.5-2 0.8 -1.1 0.5-1.6 1.7-1.2 2.8 0.4 0.8 1.2 1.3 2 1.3 0.3 0 0.6 0 0.8-0.2C286 337.9 286.7 337.6 287.4 337.3zM283.4 224.7c0.5-1.1 0-2.4-1.1-2.8 -0.6-0.3-1.3-0.6-2-0.8 -1.1-0.5-2.4 0.1-2.8 1.2 -0.5 1.1 0.1 2.4 1.2 2.8 0.7 0.3 1.3 0.6 2 0.8 0.3 0.1 0.6 0.2 0.9 0.2C282.3 226.1 283.1 225.6 283.4 224.7zM273.1 342.7c1.1-0.4 1.7-1.6 1.3-2.7 -0.4-1.1-1.6-1.7-2.7-1.3 -0.7 0.2-1.3 0.5-2 0.7 -1.1 0.4-1.7 1.6-1.4 2.7 0.3 0.9 1.2 1.5 2.1 1.5 0.2 0 0.5 0 0.7-0.1C271.8 343.2 272.5 343 273.1 342.7zM269.4 219.1c0.4-1.1-0.2-2.4-1.3-2.8 -0.7-0.2-1.4-0.5-2.1-0.7 -1.1-0.4-2.3 0.2-2.7 1.3 -0.4 1.1 0.2 2.4 1.3 2.8 0.7 0.2 1.3 0.5 2 0.7 0.2 0.1 0.5 0.1 0.7 0.1C268.3 220.6 269.1 220 269.4 219.1zM258.6 347.3c1.2-0.3 1.8-1.5 1.5-2.6 -0.3-1.1-1.5-1.8-2.6-1.5 -0.7 0.2-1.3 0.4-2 0.6 -1.1 0.3-1.8 1.5-1.5 2.6 0.3 1 1.1 1.6 2.1 1.6 0.2 0 0.4 0 0.6-0.1C257.2 347.7 257.9 347.5 258.6 347.3zM255.1 214.4c0.3-1.1-0.3-2.3-1.5-2.7 -0.7-0.2-1.4-0.4-2.1-0.6 -1.2-0.3-2.3 0.4-2.6 1.5 -0.3 1.1 0.4 2.3 1.5 2.6 0.7 0.2 1.4 0.4 2.1 0.6 0.2 0.1 0.4 0.1 0.6 0.1C253.9 216 254.8 215.3 255.1 214.4zM243.9 351c1.2-0.3 1.9-1.4 1.6-2.6 -0.3-1.1-1.4-1.9-2.6-1.6 -0.7 0.2-1.4 0.3-2.1 0.5 -1.2 0.3-1.9 1.4-1.6 2.6 0.2 1 1.1 1.7 2.1 1.7 0.2 0 0.3 0 0.5 0C242.5 351.3 243.2 351.1 243.9 351zM240.5 210.6c0.2-1.2-0.5-2.3-1.6-2.6 -0.7-0.2-1.4-0.3-2.1-0.4 -1.2-0.2-2.3 0.5-2.6 1.7 -0.2 1.2 0.5 2.3 1.7 2.5 0.7 0.2 1.4 0.3 2.1 0.5v0c0.2 0 0.3 0.1 0.5 0.1C239.4 212.3 240.3 211.6 240.5 210.6zM229 353.8c1.2-0.2 2-1.3 1.8-2.5 -0.2-1.2-1.3-2-2.5-1.8 -0.7 0.1-1.4 0.2-2.1 0.4 -1.2 0.2-2 1.3-1.8 2.5 0.2 1.1 1.1 1.8 2.1 1.8 0.1 0 0.2 0 0.3 0C227.5 354.1 228.3 354 229 353.8zM228 286.4c0-1.2-0.9-2.2-2.1-2.2 -1.2 0-2.2 0.9-2.2 2.1 0 0.7 0 1.4-0.1 2.1 0 1.2 0.9 2.2 2.1 2.3 0 0 0.1 0 0.1 0 1.2 0 2.1-0.9 2.2-2.1C228 287.8 228 287.1 228 286.4zM225.8 275.6c1.2 0 2.1-1 2.1-2.2 0-0.7-0.1-1.5-0.1-2.2 0-1.2-1.1-2.1-2.2-2 -1.2 0-2.1 1.1-2 2.2 0 0.7 0.1 1.4 0.1 2.1 0 1.2 1 2.1 2.2 2.1C225.8 275.6 225.8 275.6 225.8 275.6zM225 260.5c1.2-0.1 2.1-1.1 2-2.3 -0.1-0.7-0.1-1.4-0.2-2.2 -0.1-1.2-1.2-2-2.3-1.9 -1.2 0.1-2 1.2-1.9 2.3 0.1 0.7 0.1 1.4 0.2 2.2 0.1 1.1 1 2 2.2 2C224.9 260.5 225 260.5 225 260.5zM226.9 301.6c0.1-1.2-0.7-2.3-1.9-2.4 -1.2-0.1-2.2 0.7-2.4 1.9 -0.1 0.7-0.2 1.4-0.2 2.1l0 0c-0.1 1.2 0.7 2.3 1.9 2.4 0.1 0 0.2 0 0.3 0 1.1 0 2-0.8 2.1-1.9C226.7 303.1 226.8 302.3 226.9 301.6zM225.7 207.7c0.2-1.2-0.6-2.3-1.8-2.4 -0.7-0.1-1.4-0.2-2.1-0.3 -1.2-0.2-2.3 0.7-2.4 1.8 -0.2 1.2 0.7 2.3 1.8 2.4 0.7 0.1 1.4 0.2 2.1 0.3 0.1 0 0.2 0 0.3 0C224.6 209.6 225.5 208.8 225.7 207.7zM223.5 245.5c1.2-0.2 2-1.2 1.8-2.4 -0.1-0.7-0.2-1.4-0.3-2.1 -0.2-1.2-1.3-2-2.4-1.8 -1.2 0.2-2 1.3-1.8 2.4 0.1 0.7 0.2 1.4 0.3 2.1 0.2 1.1 1.1 1.9 2.1 1.9C223.3 245.5 223.4 245.5 223.5 245.5zM224.6 316.7c0.2-1.2-0.6-2.3-1.7-2.5 -1.2-0.2-2.3 0.6-2.5 1.7 -0.1 0.7-0.3 1.4-0.4 2.1 -0.2 1.2 0.5 2.3 1.7 2.5 0.1 0 0.3 0 0.4 0 1 0 1.9-0.7 2.1-1.7C224.4 318.1 224.5 317.4 224.6 316.7zM221.1 230.6c1.2-0.2 1.9-1.3 1.7-2.5 -0.1-0.7-0.3-1.4-0.4-2.1 -0.2-1.2-1.4-1.9-2.5-1.7 -1.2 0.2-1.9 1.4-1.7 2.5 0.1 0.7 0.3 1.4 0.4 2.1 0.2 1 1.1 1.8 2.1 1.8C220.9 230.6 221 230.6 221.1 230.6zM221.5 331.6c0.3-1.1-0.4-2.3-1.6-2.6 -1.2-0.3-2.3 0.4-2.6 1.6 -0.2 0.7-0.3 1.4-0.5 2.1h0c-0.3 1.2 0.4 2.3 1.6 2.6 0.2 0.1 0.4 0.1 0.5 0.1 1 0 1.8-0.6 2.1-1.6C221.1 333 221.3 332.3 221.5 331.6zM218 215.8c1.2-0.3 1.9-1.4 1.6-2.6 -0.2-0.7-0.4-1.4-0.5-2.1 -0.3-1.2-1.5-1.8-2.6-1.5 -1.1 0.3-1.8 1.5-1.5 2.6 0.2 0.7 0.4 1.4 0.5 2.1 0.3 1 1.1 1.6 2.1 1.6C217.7 215.9 217.9 215.8 218 215.8zM217.5 346.2c0.3-1.1-0.3-2.3-1.4-2.7 -1.1-0.3-2.3 0.3-2.7 1.5 -0.2 0.7-0.4 1.4-0.6 2.1 -0.3 1.1 0.3 2.3 1.4 2.7 0.2 0.1 0.4 0.1 0.6 0.1 0.9 0 1.8-0.6 2.1-1.5C217.1 347.7 217.3 347 217.5 346.2zM213.9 356c1.2-0.1 2-1.2 1.9-2.4 -0.1-1.2-1.2-2-2.4-1.9 -0.7 0.1-1.4 0.2-2.1 0.2 -1.2 0.1-2 1.2-1.9 2.4 0.1 1.1 1.1 1.9 2.1 1.9 0.1 0 0.2 0 0.2 0C212.5 356.2 213.2 356.1 213.9 356zM214.1 201.2c1.1-0.4 1.8-1.6 1.4-2.7 -0.4-1.1-0.6-1.7-0.6-1.7 -0.4-1.1-1.6-1.7-2.7-1.3 -1.1 0.4-1.7 1.6-1.3 2.8 0 0 0.2 0.5 0.6 1.6h0c0.3 0.9 1.2 1.5 2.1 1.5C213.7 201.3 213.9 201.3 214.1 201.2zM212.8 360.7c0.4-1.1-0.2-2.4-1.3-2.8 -1.1-0.4-2.3 0.2-2.8 1.3 -0.5 1.3-0.7 2-0.7 2h0c-0.4 1.1 0.1 2.4 1.2 2.8 0.3 0.1 0.5 0.1 0.8 0.1 0.9 0 1.7-0.5 2-1.4C212 362.8 212.3 362.1 212.8 360.7zM210.7 205.8c0.1-1.2-0.8-2.2-2-2.3 -0.7-0.1-1.4-0.1-2.2-0.2 -1.2-0.1-2.2 0.8-2.3 2 -0.1 1.2 0.8 2.2 2 2.3 0.7 0.1 1.4 0.1 2.1 0.2 0.1 0 0.1 0 0.2 0C209.7 207.8 210.6 206.9 210.7 205.8zM210.3 268.6c0-15.2-12.3-27.5-27.5-27.5s-27.5 12.3-27.5 27.5c0 15.2 12.3 27.5 27.5 27.5S210.3 283.8 210.3 268.6zM198.8 357.5c1.2-0.1 2.1-1.1 2-2.3 -0.1-1.2-1.1-2.1-2.3-2 -0.7 0-1.4 0.1-2.1 0.2 -1.2 0.1-2.1 1.1-2 2.3 0.1 1.1 1 2 2.1 2 0.1 0 0.1 0 0.1 0C197.4 357.6 198.1 357.5 198.8 357.5zM195.7 204.8c0-1.2-0.9-2.2-2.1-2.2 -0.7 0-1.4 0-2.2 0 -1.2 0-2.2 0.9-2.2 2.1 0 1.2 0.9 2.2 2.1 2.2 0.7 0 1.4 0 2.1 0.1 0 0 0 0 0.1 0C194.7 206.9 195.6 206 195.7 204.8zM183.7 358.2c1.2 0 2.1-1 2.1-2.2 0-1.2-1-2.1-2.2-2.1 -0.7 0-1.4 0.1-2.1 0.1 -1.2 0-2.1 1-2.1 2.2 0 1.2 1 2.1 2.2 2.1 0 0 0 0 0.1 0C182.2 358.3 183 358.3 183.7 358.2zM178.5 207c1.2 0 2.1-1 2.1-2.2 0-1.2-1-2.1-2.2-2.1 -0.7 0-1.4 0-2.2 0.1 -1.2 0-2.1 1-2.1 2.2 0 1.2 1 2.1 2.2 2.1 0 0 0 0 0.1 0C177.1 207 177.8 207 178.5 207zM170.7 356.3c0-1.2-0.9-2.2-2.1-2.2 -0.7 0-1.4 0-2.1 0 -1.2 0-2.2 0.9-2.2 2.1 0 1.2 0.9 2.2 2.1 2.2 0.7 0 1.4 0 2.2 0.1 0 0 0 0 0 0C169.7 358.4 170.7 357.5 170.7 356.3zM163.5 207.7c1.2-0.1 2.1-1.1 2-2.3 -0.1-1.2-1.1-2.1-2.3-2 -0.7 0.1-1.4 0.1-2.2 0.2 -1.2 0.1-2.1 1.1-2 2.3 0.1 1.1 1 2 2.1 2 0.1 0 0.1 0 0.2 0C162.1 207.8 162.8 207.7 163.5 207.7zM164.1 22.4v-9.3c0-4.7-3.8-8.4-8.4-8.4 -4.6 0-8.4 3.8-8.4 8.4v9.3c0 4.7 3.8 8.4 8.4 8.4C160.4 30.9 164.1 27.1 164.1 22.4zM155.6 355.7c0.1-1.2-0.8-2.2-2-2.3 -0.7-0.1-1.4-0.1-2.1-0.2 -1.2-0.1-2.2 0.8-2.3 2 -0.1 1.2 0.8 2.2 2 2.3 0.7 0.1 1.4 0.1 2.2 0.2 0.1 0 0.1 0 0.2 0C154.6 357.7 155.5 356.8 155.6 355.7zM148.6 209c1.2-0.1 2-1.2 1.9-2.4 -0.1-1.2-1.2-2-2.4-1.9 -0.7 0.1-1.4 0.2-2.1 0.3 -1.2 0.2-2 1.2-1.9 2.4 0.1 1.1 1.1 1.9 2.1 1.9 0.1 0 0.2 0 0.3 0C147.2 209.2 147.9 209.1 148.6 209zM141.8 286.4c0-1.2-0.9-2.2-2.1-2.2 -1.2 0-2.2 0.9-2.2 2.1 0 0.7 0 1.4-0.1 2.1 0 1.2 0.9 2.2 2.1 2.3 0 0 0.1 0 0.1 0 1.1 0 2.1-0.9 2.2-2.1C141.8 287.8 141.8 287.1 141.8 286.4zM139.6 275.6c1.2 0 2.1-1 2.1-2.2 0-0.7 0-1.5-0.1-2.2 -0.1-1.2-1-2.1-2.2-2 -1.2 0-2.1 1.1-2.1 2.2 0 0.7 0.1 1.4 0.1 2.1 0 1.2 1 2.1 2.2 2.1C139.6 275.6 139.6 275.6 139.6 275.6zM138.9 260.5c1.2-0.1 2.1-1.1 2-2.3 -0.1-0.7-0.1-1.4-0.2-2.2 -0.1-1.2-1.2-2-2.3-1.9 -1.2 0.1-2 1.2-1.9 2.3 0.1 0.7 0.1 1.4 0.2 2.2 0.1 1.1 1 2 2.1 2C138.7 260.5 138.8 260.5 138.9 260.5zM140.7 301.6c0.1-1.2-0.7-2.3-1.9-2.4 -1.2-0.1-2.2 0.7-2.4 1.9 -0.1 0.7-0.2 1.4-0.3 2.1 -0.1 1.2 0.7 2.3 1.9 2.4 0.1 0 0.2 0 0.3 0 1.1 0 2-0.8 2.1-1.9C140.5 303.1 140.6 302.3 140.7 301.6zM140.6 354.2c0.2-1.2-0.6-2.3-1.8-2.4 -0.7-0.1-1.4-0.2-2.1-0.3 -1.2-0.2-2.3 0.6-2.4 1.8 -0.2 1.2 0.6 2.3 1.8 2.5 0.7 0.1 1.4 0.2 2.2 0.3 0.1 0 0.2 0 0.3 0C139.5 356 140.5 355.3 140.6 354.2zM137.3 245.5c1.2-0.2 2-1.2 1.8-2.4 -0.1-0.7-0.2-1.4-0.3-2.1 -0.2-1.2-1.3-2-2.4-1.8 -1.2 0.2-2 1.3-1.8 2.4 0.1 0.7 0.2 1.4 0.3 2.1h0c0.2 1.1 1.1 1.9 2.1 1.9C137.1 245.5 137.2 245.5 137.3 245.5zM138.4 316.7c0.2-1.2-0.6-2.3-1.7-2.5 -1.2-0.2-2.3 0.6-2.5 1.7 -0.1 0.7-0.2 1.4-0.4 2.1 -0.2 1.2 0.5 2.3 1.7 2.5 0.1 0 0.3 0 0.4 0 1 0 1.9-0.7 2.1-1.7C138.2 318.1 138.3 317.4 138.4 316.7zM134.9 230.6c1.2-0.2 1.9-1.3 1.7-2.5 -0.1-0.7-0.3-1.4-0.4-2.1 -0.2-1.2-1.4-1.9-2.5-1.7 -1.2 0.2-1.9 1.4-1.7 2.5 0.1 0.7 0.3 1.4 0.4 2.1 0.2 1 1.1 1.8 2.1 1.8C134.7 230.6 134.8 230.6 134.9 230.6zM133.7 211c1.2-0.2 2-1.3 1.8-2.5 -0.2-1.2-1.3-2-2.5-1.8 -0.7 0.1-1.4 0.3-2.1 0.4 -1.2 0.2-2 1.3-1.8 2.5 0 0.2 0.1 0.3 0.2 0.5 -0.5 0.5-0.8 1.3-0.6 2.1 0.2 0.7 0.4 1.4 0.5 2.1 0.2 1 1.1 1.6 2.1 1.6 0.2 0 0.3 0 0.5-0.1 1.2-0.3 1.9-1.4 1.6-2.6 -0.2-0.7-0.3-1.4-0.5-2C133.2 211.1 133.5 211.1 133.7 211zM135.3 331.6c0.3-1.2-0.4-2.3-1.6-2.6 -1.1-0.3-2.3 0.4-2.6 1.6 -0.2 0.7-0.3 1.4-0.5 2.1h0c-0.3 1.2 0.4 2.3 1.6 2.6 0.2 0.1 0.4 0.1 0.5 0.1 1 0 1.8-0.6 2.1-1.6C134.9 333 135.1 332.3 135.3 331.6zM131.3 346.2c0.3-1.1-0.3-2.3-1.4-2.7 -1.1-0.3-2.3 0.3-2.7 1.5 -0.2 0.7-0.4 1.4-0.6 2.1 -0.3 1.1 0.3 2.4 1.4 2.7 0.2 0.1 0.4 0.1 0.6 0.1 0.9 0 1.8-0.6 2.1-1.5C130.9 347.7 131.1 347 131.3 346.2zM127.9 201.2c1.1-0.4 1.8-1.6 1.4-2.7 -0.4-1.1-0.6-1.7-0.6-1.7 -0.4-1.1-1.6-1.7-2.7-1.3 -1.1 0.4-1.7 1.6-1.3 2.8 0 0 0.2 0.5 0.5 1.6 0.3 0.9 1.1 1.5 2 1.5C127.5 201.3 127.7 201.3 127.9 201.2zM126.6 360.7c0.4-1.1-0.2-2.4-1.3-2.8 -1.1-0.4-2.3 0.2-2.8 1.3 -0.5 1.3-0.7 2-0.7 2 -0.4 1.1 0.1 2.4 1.2 2.8 0.3 0.1 0.5 0.1 0.8 0.1 0.9 0 1.7-0.5 2-1.4C125.8 362.8 126.1 362.1 126.6 360.7zM125.7 351.7c0.2-1.2-0.5-2.3-1.7-2.5 -0.7-0.1-1.4-0.3-2.1-0.4 -1.2-0.2-2.3 0.5-2.6 1.7 -0.2 1.2 0.5 2.3 1.7 2.6 0.7 0.1 1.4 0.3 2.1 0.4 0.1 0 0.3 0 0.4 0C124.6 353.4 125.5 352.7 125.7 351.7zM119 213.8c1.2-0.2 1.9-1.4 1.7-2.6 -0.2-1.2-1.4-1.9-2.5-1.7 -0.7 0.2-1.4 0.3-2.1 0.5 -1.2 0.3-1.9 1.4-1.6 2.6 0.2 1 1.1 1.7 2.1 1.7 0.2 0 0.3 0 0.5 0C117.6 214.1 118.3 213.9 119 213.8zM120.1 268.6c0-15.2-12.3-27.5-27.5-27.5s-27.5 12.3-27.5 27.5c0 15.2 12.3 27.5 27.5 27.5C107.8 296.1 120.1 283.8 120.1 268.6zM111 348.3c0.3-1.1-0.4-2.3-1.5-2.6 -0.7-0.2-1.4-0.4-2-0.6 -1.1-0.3-2.3 0.3-2.7 1.5 -0.3 1.1 0.3 2.3 1.5 2.7 0.7 0.2 1.4 0.4 2.1 0.6 0.2 0.1 0.4 0.1 0.6 0.1C109.9 349.9 110.8 349.3 111 348.3zM104.5 217.3c1.1-0.3 1.8-1.5 1.5-2.6 -0.3-1.1-1.5-1.8-2.6-1.5 -0.7 0.2-1.4 0.4-2.1 0.6 -1.2 0.3-1.8 1.5-1.5 2.7 0.3 1 1.1 1.6 2.1 1.6 0.2 0 0.4 0 0.6-0.1C103.1 217.7 103.8 217.5 104.5 217.3zM96.6 344c0.4-1.1-0.2-2.4-1.3-2.7 -0.7-0.2-1.3-0.5-2-0.7 -1.1-0.4-2.4 0.2-2.7 1.3 -0.4 1.1 0.2 2.4 1.3 2.8 0.7 0.3 1.4 0.5 2 0.7 0.2 0.1 0.5 0.1 0.7 0.1C95.5 345.5 96.3 344.9 96.6 344zM90.2 221.6c1.1-0.4 1.7-1.6 1.4-2.7s-1.6-1.7-2.7-1.4c-0.7 0.2-1.4 0.5-2.1 0.7 -1.1 0.4-1.7 1.6-1.3 2.7 0.3 0.9 1.1 1.5 2 1.5 0.2 0 0.5 0 0.7-0.1C88.8 222.1 89.5 221.9 90.2 221.6zM82.4 338.8c0.5-1.1-0.1-2.4-1.2-2.8 -0.7-0.3-1.3-0.5-2-0.8 -1.1-0.5-2.3 0-2.8 1.1 -0.5 1.1 0 2.4 1.1 2.8 0.7 0.3 1.3 0.6 2 0.8 0.3 0.1 0.6 0.2 0.8 0.2C81.3 340.1 82.1 339.6 82.4 338.8zM76.2 226.8c1.1-0.4 1.6-1.7 1.2-2.8 -0.4-1.1-1.7-1.6-2.8-1.2 -0.7 0.3-1.3 0.6-2 0.8 -1.1 0.5-1.6 1.7-1.2 2.8 0.3 0.8 1.2 1.3 2 1.3 0.3 0 0.6-0.1 0.8-0.2C74.8 227.4 75.5 227.1 76.2 226.8zM68.7 332.6c0.5-1.1 0.1-2.4-1-2.9 -0.6-0.3-1.3-0.6-1.9-0.9 -1.1-0.5-2.4-0.1-2.9 0.9 -0.5 1.1-0.1 2.4 1 2.9 0.6 0.3 1.3 0.7 1.9 1 0.3 0.2 0.6 0.2 1 0.2C67.5 333.8 68.3 333.4 68.7 332.6zM62.5 232.9c1.1-0.5 1.5-1.8 1-2.9 -0.5-1.1-1.8-1.5-2.9-1 -0.7 0.3-1.3 0.6-1.9 1 -1 0.5-1.5 1.8-0.9 2.9 0.4 0.8 1.1 1.2 1.9 1.2 0.3 0 0.7-0.1 1-0.2C61.2 233.5 61.9 233.2 62.5 232.9zM55.3 325.6c0.6-1 0.3-2.3-0.8-2.9 -0.6-0.4-1.2-0.7-1.8-1.1 -1-0.6-2.3-0.3-2.9 0.8 -0.6 1-0.3 2.3 0.7 3 0.6 0.4 1.2 0.7 1.9 1.1 0.4 0.2 0.7 0.3 1.1 0.3C54.2 326.7 54.9 326.3 55.3 325.6zM49.4 240c1-0.6 1.4-1.9 0.8-3 -0.6-1-1.9-1.4-3-0.7 -0.6 0.4-1.3 0.8-1.9 1.1 -0.7 0.4-1 1.1-1 1.9 -0.4-1-1.4-1.6-2.5-1.3 -1.1 0.3-1.9 1.4-1.6 2.6 0.2 0.7 0.3 1.4 0.5 2.1 0.2 1 1.1 1.7 2.1 1.7 0.2 0 0.3 0 0.5 0 1.2-0.3 1.9-1.4 1.7-2.6 -0.1-0.4-0.2-0.8-0.3-1.2 0.4 0.6 1.1 1 1.8 1 0.4 0 0.8-0.1 1.1-0.3C48.2 240.7 48.8 240.3 49.4 240zM49.1 285c0.1-1.2-0.8-2.2-2-2.2 -1.2 0-2.2 0.9-2.2 2.1 0 0.7-0.1 1.4-0.1 2.1 -0.1 1.2 0.8 2.2 2 2.3 0.1 0 0.1 0 0.2 0 1.1 0 2.1-0.9 2.2-2C49 286.5 49 285.7 49.1 285zM46.9 274.2c1.2-0.1 2.1-1.1 2.1-2.3 0-0.7-0.1-1.5-0.1-2.2 -0.1-1.2-1.1-2.1-2.3-2 -1.2 0.1-2.1 1.1-2 2.3 0.1 0.7 0.1 1.4 0.1 2.1 0.1 1.2 1 2.1 2.2 2.1C46.8 274.2 46.9 274.2 46.9 274.2zM45.7 259.1c1.2-0.1 2-1.2 1.9-2.4 -0.1-0.7-0.2-1.4-0.3-2.2 -0.2-1.2-1.3-2-2.5-1.8 -1.2 0.2-2 1.3-1.8 2.4 0.1 0.7 0.2 1.4 0.3 2.1 0.2 1.1 1.1 1.9 2.2 1.9C45.5 259.1 45.6 259.1 45.7 259.1zM47.4 300.3c0.2-1.2-0.6-2.3-1.8-2.5 -1.2-0.2-2.3 0.6-2.5 1.8 -0.1 0.7-0.2 1.4-0.4 2.1 -0.2 1.2 0.6 2.3 1.7 2.5 0.1 0 0.3 0 0.4 0 1 0 1.9-0.7 2.1-1.8C47.1 301.7 47.3 301 47.4 300.3zM44.2 315.2c0.3-1.2-0.4-2.3-1.5-2.6 -0.9-0.2-1.9 0.2-2.4 1 0 0-0.1-0.1-0.1-0.1 -1-0.7-2.3-0.4-3 0.5 -0.7 1-0.4 2.3 0.5 3 0.6 0.4 1.2 0.8 1.8 1.2 0.3 0.2 0.7 0.3 1.1 0.4 0.1 0.1 0.3 0.2 0.4 0.2 0.2 0.1 0.4 0.1 0.6 0.1 0.9 0 1.8-0.6 2.1-1.6C43.8 316.6 44 315.9 44.2 315.2zM39.6 229.6c1.1-0.4 1.7-1.6 1.4-2.7 -0.1-0.4-0.2-0.6-0.2-0.6 -0.4-1.1-1.6-1.7-2.7-1.3 -1.1 0.4-1.7 1.6-1.3 2.8 0 0 0.1 0.2 0.2 0.5 0.3 0.9 1.1 1.5 2 1.5C39.2 229.7 39.4 229.6 39.6 229.6zM39.7 329.8c0.4-1.1-0.2-2.3-1.3-2.7 -1.1-0.4-2.3 0.2-2.7 1.3 -0.5 1.3-0.7 2-0.7 2 -0.4 1.1 0.1 2.4 1.2 2.8 0.3 0.1 0.5 0.2 0.8 0.2 0.9 0 1.7-0.5 2-1.4C38.9 331.9 39.2 331.2 39.7 329.8zM37 248.1c1-0.7 1.2-2 0.5-3 -0.7-1-2-1.2-3-0.5 -0.6 0.5-1.2 0.9-1.8 1.3 -0.9 0.7-1.1 2.1-0.4 3 0.4 0.6 1.1 0.9 1.7 0.9 0.5 0 0.9-0.1 1.3-0.4C35.8 249 36.4 248.6 37 248.1zM30.2 308.8c0.8-0.9 0.7-2.3-0.3-3 -1.1-0.9-1.6-1.4-1.6-1.4 -0.9-0.8-2.2-0.7-3 0.1 -0.8 0.9-0.7 2.2 0.1 3.1 0 0 0.6 0.6 1.7 1.5 0.4 0.3 0.9 0.5 1.4 0.5C29.2 309.6 29.8 309.3 30.2 308.8z" fill="#FEBC12"/><path d="M374.3 278.9v1.6h-3.8c1.1 1.9 1.8 5.4 1.8 9.5 0 6.1-1.6 11-3.5 11 -1.9 0-3.5-4.9-3.5-11 0-4.1 0.7-7.6 1.8-9.5h-12.6v-1.6h13.4 1.7H374.3zM372.3 268.3c0 5.1-1.1 9.4-2.7 10.6h-1.7c-1.5-1.2-2.7-5.5-2.7-10.6 0-6 1.6-10.9 3.5-10.9C370.7 257.3 372.3 262.2 372.3 268.3zM334.4 253.4c0.9 0.8 0.9 2.2 0.1 3 -0.4 0.5-1 0.7-1.6 0.7 -0.5 0-1-0.2-1.5-0.6 0 0-0.5-0.5-1.5-1.4 -0.9-0.8-1-2.1-0.3-3 0.8-0.9 2.1-1 3-0.2C333.8 252.9 334.4 253.4 334.4 253.4zM322.2 244c1 0.7 1.2 2 0.5 3 -0.4 0.6-1.1 0.9-1.8 0.9 -0.4 0-0.8-0.1-1.2-0.4 -0.6-0.4-1.1-0.8-1.7-1.2 -1-0.7-1.2-2-0.6-3 0.7-1 2-1.2 3-0.6C321.1 243.1 321.7 243.6 322.2 244zM317.6 256.7c0.2 1.2-0.7 2.3-1.8 2.4 -0.1 0-0.2 0-0.3 0 -1.1 0-2-0.8-2.1-1.9 -0.1-0.7-0.2-1.4-0.3-2.1 -0.2-1.2 0.6-2.3 1.8-2.4 1.2-0.2 2.3 0.6 2.4 1.8C317.4 255.2 317.5 256 317.6 256.7zM315 241.7c0.3 1.2-0.5 2.3-1.6 2.6 -0.1 0-0.3 0.1-0.4 0.1 -1 0-1.9-0.7-2.1-1.7 -0.1-0.7-0.3-1.4-0.5-2.1 -0.3-1.2 0.5-2.3 1.6-2.6 1.2-0.3 2.3 0.5 2.6 1.6C314.7 240.2 314.9 240.9 315 241.7zM311.1 226.8c0.4 1.1-0.2 2.4-1.4 2.7 -0.2 0.1-0.4 0.1-0.7 0.1 -0.9 0-1.7-0.6-2-1.5 -0.1-0.3-0.2-0.5-0.2-0.5 -0.4-1.1 0.2-2.4 1.3-2.7 1.1-0.4 2.4 0.2 2.8 1.3C310.9 226.3 310.9 226.5 311.1 226.8zM309.4 235.7c1 0.6 1.4 1.9 0.8 3 -0.4 0.7-1.1 1.1-1.9 1.1 -0.4 0-0.7-0.1-1.1-0.3 -0.6-0.3-1.2-0.7-1.8-1.1 -1-0.6-1.4-1.9-0.8-2.9 0.6-1 1.9-1.4 2.9-0.8C308.2 235 308.8 235.3 309.4 235.7zM296.1 228.4c1.1 0.5 1.5 1.8 1 2.9 -0.4 0.8-1.1 1.2-1.9 1.2 -0.3 0-0.7-0.1-1-0.2 -0.6-0.3-1.3-0.6-1.9-1 -1.1-0.5-1.5-1.8-1-2.9 0.5-1.1 1.8-1.5 2.9-1C294.8 227.7 295.4 228 296.1 228.4zM273.3 241.2c15.2 0 27.5 12.3 27.5 27.5 0 15.2-12.3 27.5-27.5 27.5 -15.2 0-27.5-12.3-27.5-27.5C245.9 253.5 258.2 241.2 273.3 241.2zM297.6 268.6c0-13.4-10.8-24.2-24.2-24.2 -13.4 0-24.2 10.9-24.2 24.2 0 13.4 10.9 24.2 24.2 24.2C286.7 292.9 297.5 282 297.6 268.6z" fill="#FFF"/><path d="M273.3 244.4c13.4 0 24.2 10.9 24.2 24.2 0 13.4-10.8 24.2-24.2 24.2 -13.4 0-24.2-10.8-24.2-24.2C249.1 255.3 259.9 244.4 273.3 244.4zM290.5 268.3c0-0.1 0-0.2 0-0.4 0-9.5-7.7-17.2-17.2-17.2 -9.5 0-17.2 7.7-17.2 17.2 0 0.1 0 0.2 0 0.4 0 0.1 0 0.2 0 0.4 0 9.5 7.7 17.2 17.2 17.2 9.5 0 17.2-7.7 17.2-17.2C290.6 268.5 290.6 268.4 290.5 268.3z" fill="#FEBC12"/><path d="M290.6 267.9c0 0.1 0 0.2 0 0.4 0 0.1 0 0.2 0 0.4 0 9.5-7.7 17.2-17.2 17.2 -9.5 0-17.2-7.7-17.2-17.2 0-0.1 0-0.2 0-0.4 0-0.1 0-0.2 0-0.4 0-9.5 7.7-17.2 17.2-17.2C282.8 250.7 290.6 258.4 290.6 267.9z" fill="#C5E5D5"/><path d="M282.3 221.9c1.1 0.5 1.6 1.7 1.1 2.8 -0.3 0.8-1.1 1.3-2 1.3 -0.3 0-0.6-0.1-0.8-0.2 -0.6-0.3-1.3-0.5-2-0.8 -1.1-0.4-1.6-1.7-1.1-2.8 0.5-1.1 1.7-1.6 2.8-1.2C280.9 221.3 281.6 221.6 282.3 221.9zM268.1 216.4c1.1 0.4 1.7 1.6 1.3 2.8 -0.3 0.9-1.2 1.4-2 1.4 -0.2 0-0.5 0-0.7-0.1 -0.7-0.2-1.3-0.5-2-0.7 -1.1-0.4-1.7-1.6-1.3-2.7 0.4-1.1 1.6-1.7 2.7-1.3C266.7 215.9 267.4 216.1 268.1 216.4zM253.6 211.7c1.1 0.3 1.8 1.5 1.5 2.7 -0.3 0.9-1.1 1.6-2.1 1.6 -0.2 0-0.4 0-0.6-0.1 -0.7-0.2-1.4-0.4-2-0.6 -1.1-0.3-1.8-1.5-1.5-2.6 0.3-1.1 1.5-1.8 2.7-1.5C252.2 211.3 252.9 211.5 253.6 211.7zM238.8 208c1.2 0.3 1.9 1.4 1.7 2.6 -0.2 1-1.1 1.7-2.1 1.7 -0.2 0-0.3 0-0.5-0.1v0c-0.7-0.1-1.4-0.3-2.1-0.4 -1.2-0.2-1.9-1.4-1.7-2.5 0.3-1.2 1.4-1.9 2.6-1.7C237.4 207.7 238.1 207.9 238.8 208zM225.9 284.2c1.2 0.1 2.1 1 2.1 2.2 0 0.7 0 1.5-0.1 2.2 0 1.2-1 2.1-2.2 2.1 0 0-0.1 0-0.1 0 -1.2 0-2.1-1.1-2.1-2.2 0-0.7 0.1-1.4 0.1-2.1C223.7 285.1 224.7 284.1 225.9 284.2zM227.9 273.3c0 1.2-0.9 2.2-2.1 2.2 0 0-0.1 0-0.1 0 -1.2 0-2.1-0.9-2.2-2.1 0-0.7 0-1.4-0.1-2.1 -0.1-1.2 0.9-2.2 2.1-2.2 1.2-0.1 2.2 0.9 2.3 2.1C227.9 271.9 227.9 272.6 227.9 273.3zM227 258.1c0.1 1.2-0.8 2.2-2 2.3 -0.1 0-0.1 0-0.2 0 -1.1 0-2.1-0.8-2.1-2 -0.1-0.7-0.1-1.4-0.2-2.1 -0.1-1.2 0.8-2.2 2-2.3 1.2-0.1 2.2 0.8 2.4 1.9C226.9 256.7 226.9 257.4 227 258.1zM225 299.2c1.2 0.1 2 1.2 1.9 2.4 -0.1 0.7-0.2 1.4-0.2 2.2 -0.1 1.1-1.1 1.9-2.1 1.9 -0.1 0-0.2 0-0.3 0 -1.2-0.1-2-1.2-1.9-2.4l0 0c0.1-0.7 0.2-1.4 0.3-2.1C222.8 299.9 223.8 299.1 225 299.2zM223.9 205.3c1.2 0.2 2 1.3 1.8 2.5 -0.2 1.1-1.1 1.8-2.1 1.8 -0.1 0-0.2 0-0.3 0 -0.7-0.1-1.4-0.2-2.1-0.3 -1.2-0.2-2-1.2-1.8-2.4 0.2-1.2 1.3-2 2.4-1.8C222.4 205.1 223.1 205.2 223.9 205.3zM225.3 243c0.2 1.2-0.7 2.3-1.8 2.4 -0.1 0-0.2 0-0.3 0 -1.1 0-2-0.8-2.1-1.9 -0.1-0.7-0.2-1.4-0.3-2.1 -0.2-1.2 0.6-2.3 1.8-2.4 1.2-0.2 2.3 0.7 2.4 1.8C225.1 241.6 225.2 242.3 225.3 243zM222.9 314.2c1.2 0.2 1.9 1.3 1.7 2.5 -0.1 0.7-0.3 1.4-0.4 2.1 -0.2 1-1.1 1.8-2.1 1.8 -0.1 0-0.3 0-0.4 0 -1.2-0.2-1.9-1.3-1.7-2.5 0.1-0.7 0.3-1.4 0.4-2.1C220.6 314.7 221.7 314 222.9 314.2zM222.8 228.1c0.2 1.2-0.5 2.3-1.7 2.5 -0.1 0-0.3 0.1-0.4 0.1 -1 0-1.9-0.7-2.1-1.8 -0.1-0.7-0.3-1.4-0.4-2.1 -0.2-1.2 0.5-2.3 1.7-2.5 1.2-0.2 2.3 0.5 2.5 1.7C222.6 226.6 222.7 227.3 222.8 228.1zM219.9 329c1.2 0.3 1.9 1.5 1.6 2.6 -0.2 0.7-0.3 1.4-0.5 2.1 -0.2 1-1.1 1.6-2.1 1.6 -0.2 0-0.3 0-0.5-0.1 -1.1-0.3-1.8-1.5-1.6-2.6h0c0.2-0.7 0.3-1.4 0.5-2.1C217.6 329.4 218.7 328.7 219.9 329zM219.6 213.2c0.3 1.2-0.4 2.3-1.6 2.6 -0.2 0-0.3 0.1-0.5 0.1 -1 0-1.8-0.7-2.1-1.6 -0.2-0.7-0.3-1.4-0.5-2.1 -0.3-1.2 0.4-2.3 1.6-2.6 1.2-0.3 2.3 0.4 2.6 1.6C219.3 211.8 219.4 212.5 219.6 213.2zM216.1 343.6c1.1 0.3 1.8 1.5 1.5 2.7 -0.2 0.7-0.4 1.4-0.6 2.1 -0.3 0.9-1.1 1.5-2.1 1.5 -0.2 0-0.4 0-0.6-0.1 -1.1-0.4-1.8-1.6-1.4-2.7 0.2-0.7 0.4-1.3 0.6-2C213.7 343.9 214.9 343.2 216.1 343.6zM215.8 353.6c0.1 1.2-0.7 2.3-1.9 2.4 -0.7 0.1-1.4 0.2-2.2 0.2 -0.1 0-0.2 0-0.2 0 -1.1 0-2-0.8-2.1-1.9 -0.1-1.2 0.7-2.2 1.9-2.4 0.7-0.1 1.4-0.2 2.1-0.2C214.6 351.6 215.7 352.4 215.8 353.6zM215.5 198.5c0.4 1.1-0.2 2.4-1.4 2.7 -0.2 0.1-0.4 0.1-0.7 0.1 -0.9 0-1.7-0.6-2-1.5h0c-0.3-1.1-0.5-1.6-0.5-1.6 -0.4-1.1 0.2-2.3 1.3-2.7 1.1-0.4 2.4 0.2 2.8 1.3C214.9 196.8 215.1 197.4 215.5 198.5zM211.5 358c1.1 0.4 1.7 1.7 1.3 2.8 -0.5 1.3-0.8 2.1-0.8 2.1 -0.3 0.9-1.1 1.4-2 1.4 -0.3 0-0.5 0-0.8-0.1 -1.1-0.4-1.7-1.7-1.2-2.8h0c0 0 0.3-0.7 0.7-2C209.1 358.1 210.3 357.6 211.5 358zM208.8 203.5c1.2 0.1 2.1 1.1 2 2.3 -0.1 1.1-1 2-2.1 2 -0.1 0-0.1 0-0.2 0 -0.7-0.1-1.4-0.1-2.1-0.2 -1.2-0.1-2.1-1.1-2-2.3 0.1-1.2 1.1-2.1 2.3-2C207.3 203.4 208 203.4 208.8 203.5zM182.8 241.2c15.2 0 27.5 12.3 27.5 27.5 0 15.2-12.3 27.5-27.5 27.5s-27.5-12.3-27.5-27.5C155.3 253.5 167.6 241.2 182.8 241.2zM207.1 268.6c0-13.4-10.9-24.2-24.2-24.2 -13.4 0-24.2 10.9-24.2 24.2 0 13.4 10.9 24.2 24.2 24.2C196.2 292.9 207 282 207.1 268.6zM200.8 355.1c0.1 1.2-0.8 2.2-2 2.3 -0.7 0.1-1.4 0.1-2.2 0.2 0 0-0.1 0-0.1 0 -1.1 0-2.1-0.9-2.1-2 -0.1-1.2 0.8-2.2 2-2.3 0.7 0 1.4-0.1 2.1-0.1C199.7 353.1 200.7 354 200.8 355.1z" fill="#FFF"/><path d="M182.8 244.4c13.4 0 24.2 10.9 24.3 24.2 0 13.4-10.9 24.2-24.2 24.2 -13.4 0-24.2-10.8-24.2-24.2C158.6 255.3 169.4 244.4 182.8 244.4zM200.1 268.6c0-9.5-7.7-17.2-17.2-17.2s-17.2 7.7-17.2 17.2c0 9.5 7.7 17.2 17.2 17.2S200.1 278.2 200.1 268.6z" fill="#FEBC12"/><path d="M193.6 202.6c1.2 0 2.1 1 2.1 2.2 0 1.2-1 2.1-2.1 2.1 0 0 0 0-0.1 0 -0.7 0-1.4 0-2.1 0 -1.2 0-2.1-1-2.1-2.2 0-1.2 1-2.1 2.2-2.1C192.1 202.6 192.8 202.6 193.6 202.6z" fill="#FFF"/><path d="M182.8 251.4c9.5 0 17.2 7.7 17.2 17.2 0 9.5-7.7 17.2-17.2 17.2s-17.2-7.7-17.2-17.2C165.6 259.1 173.3 251.4 182.8 251.4z" fill="#C5E5D5"/><path d="M185.8 356c0 1.2-0.9 2.2-2.1 2.2 -0.7 0-1.4 0.1-2.2 0.1 0 0 0 0-0.1 0 -1.2 0-2.1-0.9-2.1-2.1 0-1.2 0.9-2.2 2.1-2.2 0.7 0 1.4 0 2.2-0.1C184.7 353.9 185.7 354.8 185.8 356zM180.6 204.8c0 1.2-0.9 2.2-2.1 2.2 -0.7 0-1.4 0.1-2.1 0.1 0 0 0 0-0.1 0 -1.2 0-2.1-0.9-2.1-2.1 0-1.2 0.9-2.2 2.1-2.2 0.7 0 1.4 0 2.2-0.1C179.6 202.7 180.6 203.6 180.6 204.8zM168.6 354.1c1.2 0 2.1 1 2.1 2.2 0 1.2-1 2.1-2.2 2.1 0 0 0 0 0 0 -0.7 0-1.4 0-2.2 0 -1.2 0-2.1-1-2.1-2.2 0-1.2 1-2.1 2.2-2.1C167.2 354.1 167.9 354.1 168.6 354.1zM165.5 205.4c0.1 1.2-0.8 2.2-2 2.3 -0.7 0.1-1.4 0.1-2.1 0.2 -0.1 0-0.1 0-0.2 0 -1.1 0-2.1-0.9-2.1-2 -0.1-1.2 0.8-2.2 2-2.3 0.7-0.1 1.4-0.1 2.2-0.1C164.4 203.3 165.4 204.2 165.5 205.4z" fill="#FFF"/><path d="M164.1 13.1v9.3c0 4.7-3.8 8.4-8.4 8.4 -4.6 0-8.4-3.8-8.4-8.4v-9.3c0-4.7 3.8-8.4 8.4-8.4C160.4 4.7 164.1 8.4 164.1 13.1z" fill="#C5E5D5"/><path d="M153.6 353.4c1.2 0.1 2.1 1.1 2 2.3 -0.1 1.1-1 2-2.1 2 -0.1 0-0.1 0-0.2 0 -0.7 0-1.5-0.1-2.2-0.2 -1.2-0.1-2.1-1.2-2-2.3 0.1-1.2 1.2-2.1 2.3-2C152.2 353.3 152.9 353.3 153.6 353.4zM150.5 206.6c0.1 1.2-0.7 2.2-1.9 2.4 -0.7 0.1-1.4 0.2-2.1 0.2 -0.1 0-0.2 0-0.2 0 -1.1 0-2-0.8-2.1-1.9 -0.1-1.2 0.7-2.2 1.9-2.4 0.7-0.1 1.4-0.2 2.2-0.2C149.3 204.6 150.4 205.5 150.5 206.6zM139.7 284.2c1.2 0 2.1 1 2.1 2.2 0 0.7 0 1.4-0.1 2.2 0 1.2-1 2.1-2.1 2.1 0 0-0.1 0-0.1 0 -1.2-0.1-2.1-1.1-2.1-2.2 0-0.7 0.1-1.4 0.1-2.1C137.5 285.1 138.5 284.1 139.7 284.2zM141.7 273.3c0.1 1.2-0.9 2.2-2.1 2.2 0 0 0 0-0.1 0 -1.1 0-2.1-0.9-2.1-2.1 0-0.7 0-1.4-0.1-2.1 0-1.2 0.9-2.2 2.1-2.2 1.2-0.1 2.2 0.9 2.2 2.1C141.7 271.9 141.7 272.6 141.7 273.3zM140.8 258.1c0.1 1.2-0.8 2.2-2 2.3 -0.1 0-0.1 0-0.2 0 -1.1 0-2-0.8-2.1-2 -0.1-0.7-0.1-1.4-0.2-2.1 -0.1-1.2 0.8-2.2 1.9-2.3 1.2-0.1 2.2 0.8 2.4 1.9C140.7 256.7 140.7 257.4 140.8 258.1zM138.8 299.2c1.2 0.1 2 1.2 1.9 2.4 -0.1 0.7-0.2 1.4-0.3 2.2 -0.1 1.1-1.1 1.9-2.1 1.9 -0.1 0-0.2 0-0.3 0 -1.2-0.1-2-1.2-1.9-2.4 0.1-0.7 0.2-1.4 0.3-2.1C136.6 299.9 137.6 299.1 138.8 299.2zM138.8 351.7c1.2 0.2 2 1.3 1.8 2.4 -0.2 1.1-1.1 1.9-2.1 1.9 -0.1 0-0.2 0-0.3 0 -0.7-0.1-1.4-0.2-2.1-0.3 -1.2-0.2-2-1.3-1.8-2.4 0.2-1.2 1.3-2 2.5-1.8C137.4 351.5 138.1 351.6 138.8 351.7zM139.1 243c0.2 1.2-0.6 2.3-1.8 2.4 -0.1 0-0.2 0-0.3 0 -1.1 0-2-0.8-2.1-1.9h0c-0.1-0.7-0.2-1.4-0.3-2.1 -0.2-1.2 0.6-2.3 1.8-2.4 1.2-0.2 2.3 0.6 2.4 1.8C138.9 241.6 139 242.3 139.1 243zM136.7 314.2c1.2 0.2 2 1.3 1.7 2.5 -0.1 0.7-0.3 1.4-0.4 2.1 -0.2 1-1.1 1.8-2.1 1.8 -0.1 0-0.3 0-0.4 0 -1.2-0.2-1.9-1.4-1.7-2.5 0.1-0.7 0.3-1.4 0.4-2.1C134.4 314.7 135.5 314 136.7 314.2zM136.6 228.1c0.2 1.2-0.5 2.3-1.7 2.5 -0.1 0-0.3 0.1-0.4 0.1 -1 0-1.9-0.7-2.1-1.8 -0.1-0.7-0.3-1.4-0.4-2.1 -0.2-1.2 0.5-2.3 1.7-2.5 1.2-0.2 2.3 0.5 2.5 1.7C136.4 226.6 136.5 227.3 136.6 228.1zM135.5 208.6c0.2 1.2-0.6 2.3-1.8 2.5 -0.3 0-0.6 0.1-0.8 0.1 0.2 0.7 0.3 1.3 0.5 2 0.3 1.2-0.4 2.3-1.6 2.6 -0.2 0-0.3 0.1-0.5 0.1 -1 0-1.8-0.7-2.1-1.6 -0.2-0.7-0.3-1.4-0.5-2.1 -0.2-0.8 0.1-1.5 0.6-2.1 -0.1-0.1-0.1-0.3-0.2-0.5 -0.2-1.2 0.6-2.3 1.8-2.5 0.7-0.1 1.4-0.2 2.1-0.4C134.2 206.6 135.3 207.4 135.5 208.6zM133.7 329c1.2 0.3 1.9 1.4 1.6 2.6 -0.2 0.7-0.3 1.4-0.5 2.1 -0.2 1-1.1 1.6-2.1 1.6 -0.2 0-0.3 0-0.5-0.1 -1.2-0.3-1.9-1.5-1.6-2.6h0c0.2-0.7 0.3-1.4 0.5-2.1C131.4 329.4 132.5 328.7 133.7 329zM129.9 343.6c1.1 0.3 1.8 1.5 1.5 2.7 -0.2 0.7-0.4 1.4-0.6 2.1 -0.3 0.9-1.1 1.5-2 1.5 -0.2 0-0.4 0-0.6-0.1 -1.1-0.3-1.8-1.6-1.4-2.7 0.2-0.7 0.4-1.3 0.6-2C127.5 343.9 128.7 343.2 129.9 343.6zM129.3 198.5c0.4 1.1-0.3 2.4-1.4 2.7 -0.2 0.1-0.4 0.1-0.7 0.1 -0.9 0-1.7-0.6-2-1.5 -0.3-1.1-0.5-1.6-0.5-1.6 -0.4-1.1 0.2-2.3 1.3-2.7 1.1-0.4 2.4 0.2 2.8 1.3C128.7 196.8 128.9 197.4 129.3 198.5zM125.3 358c1.1 0.4 1.7 1.6 1.3 2.8 -0.5 1.3-0.8 2.1-0.8 2.1 -0.3 0.9-1.1 1.4-2 1.4 -0.3 0-0.5 0-0.8-0.1 -1.1-0.4-1.6-1.7-1.2-2.8 0 0 0.3-0.7 0.7-2C122.9 358.1 124.2 357.6 125.3 358zM120.7 211.2c0.3 1.2-0.5 2.3-1.6 2.6 -0.7 0.1-1.4 0.3-2.1 0.5 -0.1 0-0.3 0.1-0.5 0.1 -1 0-1.9-0.7-2.1-1.7 -0.3-1.2 0.5-2.3 1.6-2.6 0.7-0.2 1.4-0.3 2.1-0.5C119.3 209.3 120.4 210.1 120.7 211.2zM92.7 241.2c15.2 0 27.5 12.3 27.5 27.5 0 15.2-12.3 27.5-27.5 27.5 -15.2 0-27.5-12.3-27.5-27.5C65.2 253.5 77.5 241.2 92.7 241.2zM116.9 268.6c0-13.4-10.8-24.2-24.2-24.2 -13.4 0-24.2 10.9-24.2 24.2 0 13.4 10.9 24.2 24.2 24.2C106.1 292.9 116.9 282 116.9 268.6z" fill="#FFF"/><path d="M92.7 244.4c13.4 0 24.2 10.9 24.2 24.2 0 13.4-10.8 24.2-24.2 24.2 -13.4 0-24.2-10.8-24.2-24.2C68.5 255.3 79.3 244.4 92.7 244.4zM109.9 268.6c0-9.5-7.7-17.2-17.2-17.2s-17.2 7.7-17.2 17.2c0 9.5 7.7 17.2 17.2 17.2S109.9 278.2 109.9 268.6z" fill="#FEBC12"/><path d="M106 214.7c0.3 1.2-0.4 2.3-1.5 2.7 -0.7 0.2-1.4 0.4-2.1 0.6 -0.2 0.1-0.4 0.1-0.6 0.1 -0.9 0-1.8-0.6-2.1-1.6 -0.3-1.1 0.4-2.3 1.5-2.6 0.7-0.2 1.4-0.4 2.1-0.6C104.5 212.8 105.7 213.5 106 214.7z" fill="#FFF"/><circle cx="92.7" cy="268.6" r="17.2" fill="#C5E5D5"/><path d="M77.3 224c0.5 1.1-0.1 2.4-1.2 2.8 -0.7 0.3-1.3 0.5-2 0.8 -0.3 0.1-0.5 0.2-0.8 0.2 -0.8 0-1.6-0.5-2-1.3 -0.5-1.1 0.1-2.4 1.2-2.8 0.7-0.3 1.3-0.6 2-0.8C75.6 222.4 76.9 222.9 77.3 224zM63.5 230c0.5 1.1 0.1 2.4-1 2.9 -0.6 0.3-1.3 0.6-1.9 0.9 -0.3 0.2-0.6 0.2-1 0.2 -0.8 0-1.5-0.4-1.9-1.2 -0.5-1.1-0.1-2.4 1-2.9 0.6-0.3 1.3-0.6 2-1C61.7 228.5 63 228.9 63.5 230zM50.2 237c0.6 1 0.3 2.4-0.8 3 -0.6 0.4-1.2 0.7-1.8 1.1 -0.3 0.2-0.7 0.3-1.1 0.3 -0.7 0-1.4-0.3-1.8-1 0.1 0.4 0.2 0.8 0.3 1.2 0.3 1.2-0.5 2.3-1.6 2.6 -0.1 0-0.3 0.1-0.4 0.1 -1 0-1.9-0.7-2.1-1.7 -0.1-0.7-0.3-1.4-0.5-2.1 -0.3-1.2 0.5-2.3 1.6-2.6 1.1-0.2 2.1 0.4 2.5 1.4 0-0.7 0.3-1.4 1-1.9 0.6-0.4 1.3-0.7 1.9-1.1C48.2 235.7 49.5 236 50.2 237zM41 226.8c0.4 1.1-0.2 2.4-1.4 2.7 -0.2 0.1-0.4 0.1-0.7 0.1 -0.9 0-1.7-0.6-2-1.5 -0.1-0.3-0.2-0.5-0.2-0.5 -0.4-1.1 0.2-2.4 1.3-2.8 1.1-0.4 2.4 0.2 2.8 1.3C40.8 226.3 40.9 226.5 41 226.8zM37.4 245.1c0.7 1 0.5 2.3-0.5 3 -0.6 0.4-1.2 0.9-1.7 1.3 -0.4 0.3-0.8 0.4-1.3 0.4 -0.6 0-1.3-0.3-1.7-0.9 -0.7-0.9-0.5-2.3 0.4-3 0.6-0.4 1.1-0.9 1.8-1.3C35.4 244 36.7 244.2 37.4 245.1z" fill="#FFF"/></svg>