<svg xmlns="http://www.w3.org/2000/svg" xmlns:xlink="http://www.w3.org/1999/xlink" version="1.1" x="0" y="0" viewBox="178.901 327 149 132" xml:space="preserve">
  <style type="text/css">
    
	.st0{fill:#025676;}
	.st1{fill:#FFFFFF;}

  </style>
  <g id="body">
    <path class="st0" d="M179 459.12h148.997v-47.779c-0.684 0.152-1.373 0.28-2.064 0.393 -0.317 0.052-0.635 0.09-0.952 0.133 -0.358 0.049-0.715 0.099-1.074 0.138 -0.424 0.045-0.848 0.08-1.273 0.111 -0.233 0.017-0.466 0.034-0.7 0.047 -0.502 0.027-1.005 0.047-1.507 0.054 -0.128 0.002-0.255 0.002-0.383 0.002 -2.461 0.01-4.92-0.217-7.336-0.678 -0.073-0.014-0.146-0.025-0.219-0.039 -0.377-0.074-0.751-0.165-1.126-0.25 -0.39-0.089-0.779-0.181-1.166-0.282 -0.247-0.064-0.492-0.134-0.737-0.203 -3.98-1.125-7.782-2.887-11.193-5.277 -0.134-0.094-0.257-0.201-0.39-0.296 -5.263-3.79-9.406-8.831-12.068-14.701 -0.107-0.235-0.209-0.472-0.311-0.71 -0.252-0.588-0.485-1.185-0.707-1.788 -0.064-0.174-0.143-0.342-0.205-0.517 -1.142-3.25-1.839-6.637-2.177-10.061 -0.014-0.138-0.027-0.276-0.039-0.414 -0.034-0.381-0.067-0.763-0.092-1.145 -0.018-0.277-0.033-0.555-0.046-0.832 -0.014-0.276-0.03-0.551-0.039-0.826 -0.019-0.576-0.032-1.153-0.032-1.729v-0.35c-0.339-0.558-0.704-1.093-1.078-1.62 -0.203-0.284-0.415-0.563-0.629-0.839 -0.14-0.183-0.283-0.363-0.427-0.542 -2.101-2.572-4.661-4.771-7.474-6.528 -1.165-0.728-2.38-1.379-3.627-1.969 -9.874-4.479-22.065-4.161-31.353 1.613 -3.803 2.364-7.915 5.266-9.402 9.495 -0.1 0.284-0.178 0.536-0.244 0.768 -0.001 0.004-0.002 0.007-0.003 0.011 -0.195 0.69-0.277 1.196-0.479 1.79 -0.277 0.811-0.53 1.63-0.758 2.456 -0.161 0.585-0.294 1.178-0.428 1.77 -0.051 0.224-0.113 0.444-0.16 0.669 -0.165 0.796-0.305 1.597-0.414 2.403 -0.377 2.773-0.41 5.601 0.007 8.372 0.179 1.186 0.442 2.356 0.788 3.499s0.775 2.259 1.284 3.336c0.255 0.539 0.53 1.067 0.824 1.585 0.589 1.036 1.258 2.027 2.005 2.962 0.373 0.468 0.766 0.921 1.177 1.359 0.229 0.228 0.466 0.452 0.709 0.673 3.797 3.455 9.23 6.015 14.546 6.39 4.596 0.324 9.104-0.985 12.384-4.778 0.138-0.159 0.252-0.342 0.382-0.508 0.236-0.3 0.477-0.597 0.691-0.918 0.061-0.091 0.117-0.187 0.176-0.28 0.269-0.423 0.519-0.86 0.75-1.311 0.08-0.156 0.152-0.315 0.227-0.474 0.201-0.424 0.389-0.856 0.557-1.299 0.062-0.163 0.117-0.328 0.175-0.494 0.162-0.468 0.311-0.941 0.436-1.422 0.034-0.131 0.064-0.262 0.095-0.394 0.125-0.528 0.234-1.059 0.314-1.594 0.013-0.088 0.024-0.175 0.036-0.263 0.078-0.574 0.134-1.149 0.159-1.723 0.003-0.062 0.003-0.123 0.005-0.184 0.02-0.587 0.014-1.171-0.023-1.747 -0.004-0.064-0.011-0.127-0.016-0.191 -0.043-0.569-0.112-1.13-0.212-1.679 -0.005-0.026-0.005-0.054-0.01-0.08 -0.008-0.042-0.023-0.082-0.031-0.123 -0.68-3.459-2.65-6.528-5.395-8.67 -0.027-0.021-0.053-0.043-0.08-0.064 -0.43-0.331-0.882-0.637-1.347-0.92 -0.049-0.03-0.097-0.062-0.147-0.091 -0.45-0.267-0.917-0.508-1.396-0.727 -0.044-0.02-0.085-0.047-0.129-0.067 -0.045-0.02-0.092-0.035-0.138-0.055 -0.193-0.084-0.388-0.159-0.584-0.234 -0.111-0.042-0.221-0.089-0.333-0.128 -3.314-1.158-6.926-0.965-9.715 0.771 -0.066 0.041-0.129 0.088-0.195 0.131 -0.19 0.125-0.377 0.257-0.559 0.397 -0.096 0.074-0.188 0.152-0.281 0.23 -0.147 0.123-0.291 0.251-0.431 0.384 -0.099 0.094-0.197 0.191-0.292 0.29 -0.13 0.135-0.256 0.278-0.379 0.423 -0.089 0.105-0.179 0.209-0.265 0.32 -0.13 0.167-0.252 0.344-0.372 0.523 -0.068 0.1-0.139 0.195-0.203 0.299 -0.18 0.289-0.351 0.59-0.507 0.908 -0.22 0.6-0.37 1.42-0.22 2.32 0.07 0.89 0.37 1.79 0.82 2.61 0.52 0.75 1.12 1.35 1.87 1.72 0.74 0.3 1.49 0.45 2.54 0.37 1.453-0.172 2.322 0.844 2.457 1.945s-0.461 2.29-1.937 2.465c-3.325 0.267-6.451-0.929-8.41-3.686 -0.232-0.326-0.447-0.675-0.643-1.042 -1.372-2.569-1.808-6.012-0.437-8.572 0.241-0.503 0.513-0.985 0.805-1.452 0.079-0.127 0.171-0.244 0.253-0.368 0.226-0.338 0.459-0.669 0.711-0.985 0.093-0.117 0.195-0.226 0.292-0.34 0.266-0.313 0.542-0.616 0.833-0.903 0.089-0.087 0.181-0.17 0.271-0.255 0.323-0.301 0.658-0.587 1.008-0.855 0.074-0.057 0.148-0.112 0.223-0.168 0.382-0.281 0.779-0.541 1.191-0.782 0.058-0.034 0.115-0.069 0.174-0.102 0.431-0.243 0.875-0.461 1.335-0.656 0.056-0.024 0.109-0.05 0.165-0.073 0.439-0.18 0.891-0.334 1.354-0.467 0.094-0.027 0.183-0.062 0.278-0.087 0.063-0.017 0.122-0.042 0.186-0.058 0.305-0.076 0.613-0.118 0.92-0.175 0.226-0.042 0.451-0.097 0.677-0.129 0.112-0.016 0.225-0.026 0.337-0.039 0.454-0.053 0.909-0.09 1.364-0.104 0.099-0.003 0.198-0.004 0.297-0.005 0.459-0.005 0.917 0.01 1.374 0.043 0.094 0.007 0.189 0.01 0.283 0.019 0.501 0.045 1 0.113 1.495 0.201 0.073 0.013 0.145 0.026 0.217 0.04 0.52 0.099 1.036 0.219 1.546 0.364 0.026 0.007 0.052 0.016 0.078 0.023 1.643 0.475 3.227 1.178 4.694 2.072 7.201 4.386 10.382 12.435 8.958 20.488 -0.017 0.094-0.03 0.187-0.047 0.281 -0.064 0.336-0.147 0.672-0.227 1.008 -0.043 0.18-0.074 0.36-0.122 0.539 -0.018 0.067-0.041 0.133-0.059 0.2 -0.078 0.286-0.166 0.569-0.253 0.852 -0.08 0.261-0.16 0.521-0.248 0.779 -0.11 0.323-0.229 0.643-0.352 0.961 -0.064 0.165-0.126 0.331-0.194 0.494 -0.391 0.948-0.838 1.868-1.355 2.744 -0.01 0.017-0.02 0.034-0.03 0.051 -0.192 0.323-0.403 0.633-0.613 0.945 -0.179 0.265-0.365 0.524-0.557 0.779 -0.004 0.005-0.008 0.01-0.011 0.014 -0.879 1.165-1.889 2.236-3.073 3.159 -3.066 2.391-6.871 3.66-10.727 3.936 -0.61 0.044-1.219 0.062-1.828 0.059 -4.698-0.02-9.323-1.393-13.368-3.77 -0.055-0.032-0.109-0.067-0.164-0.1 -0.428-0.255-0.849-0.521-1.263-0.799 -0.128-0.086-0.253-0.176-0.38-0.264 -0.332-0.23-0.661-0.466-0.983-0.71 -0.189-0.143-0.373-0.292-0.558-0.44 -0.251-0.2-0.5-0.403-0.744-0.611 -0.232-0.198-0.457-0.403-0.682-0.608 -0.188-0.172-0.375-0.344-0.558-0.521 -0.254-0.245-0.501-0.496-0.745-0.75 -0.148-0.153-0.294-0.307-0.438-0.464 -0.254-0.277-0.501-0.559-0.744-0.846 -0.129-0.152-0.257-0.306-0.382-0.461 -0.233-0.288-0.459-0.581-0.68-0.878 -0.133-0.179-0.264-0.359-0.392-0.541 -0.102-0.144-0.212-0.283-0.311-0.429 -0.083-0.124-0.154-0.252-0.236-0.377 -0.175-0.268-0.344-0.539-0.508-0.811 -0.127-0.211-0.254-0.422-0.374-0.636 -0.208-0.37-0.407-0.743-0.596-1.119 -0.06-0.12-0.123-0.239-0.182-0.359 -2.618-5.422-3.288-11.5-2.551-17.466 0.001-0.011 0.003-0.023 0.004-0.034 0.069-0.554 0.152-1.106 0.245-1.657 0.011-0.066 0.021-0.132 0.032-0.198 0.086-0.494 0.184-0.986 0.288-1.477 0.023-0.108 0.043-0.217 0.067-0.325 0.102-0.461 0.215-0.92 0.332-1.377 0.031-0.123 0.059-0.247 0.092-0.369 0.151-0.568 0.312-1.133 0.486-1.693 -0.027-0.293-0.044-0.591-0.059-0.891 -0.027-0.526-0.05-1.057-0.107-1.579 -0.034-0.308-0.077-0.612-0.144-0.91 -0.08-0.68-0.23-1.5-0.38-2.39 0-0.23-0.07-0.53-0.15-0.75 0-0.26-0.02-0.48-0.04-0.66 -0.02-0.09-0.03-0.17-0.05-0.24 -0.02-0.06-0.04-0.11-0.06-0.15 -0.232-1.077-0.498-2.145-0.795-3.204 -0.014-0.049-0.026-0.099-0.04-0.148 -0.053-0.188-0.113-0.373-0.169-0.561 -1.594-5.305-4.056-10.282-7.4-14.646 -0.377-0.482-0.75-0.969-1.147-1.431 -0.028-0.033-0.055-0.066-0.082-0.098 -0.395-0.468-0.822-0.913-1.238-1.365 -6.101-6.437-14.164-10.702-22.924-12.418 -0.916-0.156-1.837-0.294-2.77-0.392 -1.62-0.169-3.243-0.305-4.867-0.429 -0.439-0.011-0.876-0.039-1.317-0.038v20.013h-0.003v3.35c0.229 0.043 0.454 0.099 0.682 0.147 2.834 0.608 5.543 1.628 8.055 3.049 0.045 0.025 0.089 0.052 0.134 0.077 0.328 0.188 0.653 0.379 0.974 0.581 0.314 0.197 0.626 0.396 0.933 0.606 0.019 0.013 0.038 0.024 0.057 0.037 0.006 0.004 0.012 0.009 0.018 0.013 3.496 2.411 6.408 5.583 8.406 9.292 0.018 0.034 0.036 0.069 0.055 0.104 0.653 1.227 1.209 2.51 1.65 3.845 0.204 0.617 0.376 1.24 0.53 1.867 0.065 0.266 0.127 0.532 0.184 0.799 1 4.7 0.673 9.597-0.523 14.256 0.029-0.091 0.057-0.179 0.085-0.267 0.687-2.149 1.034-3.172-0.57 2.006 -0.015 0.047-0.026 0.084-0.041 0.131 -0.056 0.173-0.102 0.313-0.153 0.467 -0.99 3.026-0.838 2.488-0.359 0.947 -0.061 0.159-0.118 0.32-0.181 0.478 -0.148 0.368-0.311 0.727-0.473 1.087 -0.122 0.272-0.245 0.543-0.375 0.81 -0.133 0.272-0.273 0.54-0.413 0.807 -0.193 0.367-0.393 0.729-0.601 1.087 -0.1 0.172-0.202 0.344-0.305 0.513 -0.294 0.482-0.601 0.954-0.92 1.416 -0.033 0.048-0.065 0.097-0.099 0.144 -3.968 5.67-9.848 9.814-16.746 11.689 -0.001 0-0.002 0.001-0.003 0.001v8.326H179V459.12zM180.461 406.047c0.115-0.043 0.227-0.091 0.341-0.135 0.375-0.145 0.748-0.294 1.115-0.455 0.109-0.048 0.216-0.101 0.325-0.15 0.37-0.169 0.737-0.344 1.099-0.53 0.101-0.052 0.2-0.107 0.3-0.16 0.361-0.192 0.719-0.392 1.07-0.601 0.101-0.06 0.201-0.122 0.302-0.184 0.338-0.208 0.671-0.425 0.999-0.649 0.111-0.076 0.222-0.152 0.332-0.23 0.302-0.214 0.598-0.437 0.89-0.665 0.128-0.1 0.257-0.199 0.383-0.302 0.259-0.211 0.51-0.43 0.76-0.652 0.146-0.13 0.294-0.257 0.437-0.391 0.223-0.208 0.437-0.425 0.651-0.642 0.123-0.124 0.254-0.241 0.374-0.369 0.028-0.03 0.053-0.062 0.081-0.092 0.226-0.241 0.442-0.494 0.658-0.746 0.111-0.13 0.228-0.254 0.336-0.386 0.656-0.801 1.265-1.651 1.821-2.54 0.841-1.345 1.563-2.782 2.16-4.276 0.042-0.105 0.08-0.212 0.12-0.318 0.398-1.034 0.735-2.094 1.01-3.17 0.02-0.08 0.037-0.161 0.057-0.242 0.917-3.727 1.073-7.626 0.349-11.274 -0.026-0.129-0.052-0.257-0.079-0.385 -0.039-0.182-0.069-0.368-0.113-0.548 -0.07-0.287-0.16-0.567-0.242-0.849 -0.048-0.167-0.09-0.335-0.143-0.5 -0.078-0.243-0.168-0.482-0.255-0.722 -0.813-2.248-2.006-4.352-3.511-6.218 -0.006-0.007-0.011-0.015-0.017-0.022 -0.259-0.321-0.533-0.629-0.81-0.936 -0.159-0.177-0.322-0.349-0.486-0.521 -0.142-0.148-0.287-0.292-0.433-0.437 -2.794-2.763-6.29-4.826-10.085-5.822 -0.417-0.109-0.836-0.214-1.259-0.298v46.913c0.021-0.007 0.042-0.015 0.063-0.021C179.531 406.377 179.998 406.219 180.461 406.047zM325.644 331.807c-0.421 0.034-0.842 0.07-1.261 0.115 -0.208 0.022-0.416 0.049-0.624 0.074 -0.401 0.049-0.801 0.101-1.2 0.159 -0.204 0.03-0.408 0.062-0.612 0.095 -0.412 0.066-0.824 0.138-1.235 0.216 -0.183 0.034-0.365 0.069-0.548 0.105 -0.452 0.091-0.903 0.19-1.352 0.294 -0.138 0.032-0.276 0.062-0.413 0.095 -0.544 0.131-1.086 0.273-1.624 0.424 -0.044 0.012-0.088 0.023-0.132 0.035 -1.19 0.337-2.365 0.724-3.523 1.156 -0.076 0.028-0.151 0.06-0.227 0.089 -0.956 0.363-1.9 0.755-2.826 1.185 -0.01 0.005-0.02 0.01-0.031 0.015 -4.781 2.224-9.125 5.336-12.709 9.183 -0.147 0.159-0.291 0.321-0.435 0.483 -0.453 0.503-0.885 1.024-1.312 1.551 -0.363 0.452-0.717 0.912-1.06 1.38 -0.218 0.296-0.43 0.598-0.639 0.901 -1.019 1.477-1.94 3.022-2.747 4.628 -0.057 0.115-0.117 0.23-0.172 0.346 -0.075 0.152-0.144 0.307-0.217 0.46 -0.248 0.523-0.465 1.062-0.691 1.597 -1.358 3.33-2.238 6.813-2.737 10.382 -0.007 0.058-0.016 0.115-0.023 0.173 -0.024 0.173-0.042 0.348-0.064 0.522 -0.081 0.735-0.145 1.474-0.2 2.214 -0.009 0.116-0.015 0.231-0.024 0.347 -0.048 0.695-0.089 1.392-0.122 2.091l0 0c-0.042 0.906-0.078 1.815-0.104 2.729 0 0.004 0 0.008 0 0.011 0 0.01 0 0.01 0 0.02 0.043 0.871 0.118 1.741 0.215 2.608 0.009 0.082 0.017 0.165 0.026 0.247 0.429 3.624 1.341 7.182 2.781 10.513 0.036 0.083 0.077 0.164 0.114 0.248 0.303 0.687 0.633 1.362 0.982 2.028 0.169 0.323 0.356 0.637 0.536 0.954 0.225 0.395 0.454 0.788 0.696 1.174 0.308 0.492 0.638 0.971 0.974 1.447 0.146 0.207 0.292 0.413 0.443 0.616 0.177 0.238 0.334 0.488 0.518 0.722 1.343 1.703 2.863 3.249 4.514 4.634 0.081 0.068 0.162 0.137 0.244 0.204 0.553 0.455 1.12 0.893 1.702 1.31 0.197 0.141 0.396 0.279 0.595 0.415 0.533 0.365 1.073 0.719 1.626 1.052 0.371 0.223 0.746 0.439 1.126 0.648 0.039 0.021 0.077 0.043 0.116 0.065 0.329 0.18 0.663 0.35 0.999 0.519 0.147 0.074 0.293 0.147 0.441 0.219 0.262 0.127 0.527 0.249 0.793 0.37 0.239 0.108 0.479 0.213 0.72 0.315 0.201 0.086 0.404 0.17 0.607 0.252 0.321 0.129 0.645 0.252 0.97 0.371 0.145 0.053 0.29 0.108 0.436 0.16 0.393 0.138 0.789 0.268 1.187 0.391 0.096 0.03 0.19 0.062 0.286 0.091 0.464 0.14 0.93 0.269 1.399 0.389 0.042 0.011 0.084 0.024 0.127 0.034 0.486 0.122 0.974 0.234 1.465 0.334 0.006 0.001 0.012 0.002 0.018 0.003 4.088 0.83 8.572 0.903 12.708 0.008 0.04-0.009 0.081-0.015 0.121-0.024 0.585-0.129 1.164-0.278 1.732-0.447v-47.244c-0.176-0.046-0.362-0.075-0.543-0.114 -2.207-0.475-4.695-0.397-6.985 0.11 -0.031 0.007-0.063 0.011-0.093 0.018 -0.025 0.006-0.049 0.014-0.074 0.02 -0.806 0.187-1.586 0.423-2.316 0.707 -0.358 0.139-0.708 0.295-1.05 0.464 -0.017 0.008-0.035 0.015-0.052 0.023 -0.01 0.005-0.02 0.012-0.031 0.017 -2.499 1.247-4.558 3.244-5.761 5.802 -0.13 0.24-0.24 0.509-0.333 0.798 -0.002 0.006-0.004 0.012-0.006 0.018 -0.072 0.226-0.124 0.473-0.174 0.721 -0.055 0.275-0.093 0.56-0.12 0.853 -0.008 0.089-0.023 0.174-0.029 0.264 -0.025 0.38-0.032 0.768-0.011 1.157 0.149 1.419 0.523 2.839 1.271 4.109 0.079 0.15 0.187 0.286 0.279 0.43 0.518 0.807 1.226 1.517 2.169 2.097 0.31 0.19 0.633 0.374 0.991 0.536 0.291 0.145 0.592 0.266 0.897 0.375 0.003 0.001 0.006 0.002 0.009 0.003 1.655 0.592 3.494 0.694 5.224 0.593h0c0.223-0.013 0.437 0.008 0.64 0.056 0.009 0.002 0.018 0.005 0.027 0.007 1.013 0.251 1.73 1.192 1.722 2.188 0 0.036-0.007 0.07-0.009 0.106 -0.009 0.15-0.037 0.301-0.081 0.45 -0.011 0.039-0.018 0.077-0.031 0.116 -0.064 0.177-0.157 0.351-0.277 0.519 -0.009 0.013-0.011 0.026-0.021 0.039 -0.009 0.012-0.022 0.018-0.031 0.03 -0.12 0.154-0.258 0.286-0.41 0.399 -0.048 0.036-0.102 0.063-0.153 0.095 -0.075 0.047-0.157 0.085-0.237 0.124 -1.169 0.568-2.856 0.363-4.093 0.214 -0.112-0.013-0.231-0.028-0.335-0.04 -0.497-0.056-0.992-0.134-1.484-0.232 -0.023-0.005-0.047-0.008-0.07-0.013 -0.475-0.097-0.945-0.216-1.408-0.354 -0.052-0.016-0.104-0.032-0.156-0.049 -0.937-0.29-1.843-0.664-2.693-1.13 -0.029-0.016-0.058-0.031-0.087-0.047 -0.431-0.241-0.849-0.503-1.247-0.792 -0.004-0.003-0.008-0.007-0.013-0.01 -0.394-0.286-0.768-0.598-1.124-0.932 -0.019-0.018-0.039-0.034-0.057-0.052 -0.336-0.32-0.65-0.667-0.946-1.031 -0.054-0.066-0.105-0.135-0.158-0.203 -0.285-0.369-0.555-0.754-0.794-1.167 -0.002-0.003-0.005-0.006-0.006-0.009 -0.27-0.422-0.499-0.857-0.709-1.297 -0.021-0.044-0.04-0.089-0.061-0.134 -0.623-1.349-0.973-2.766-1.075-4.2 -0.015-0.207-0.033-0.415-0.038-0.623 -0.001-0.048-0.001-0.096-0.001-0.144 -0.032-3.018 1.005-6.041 2.826-8.533 0.354-0.484 0.73-0.954 1.141-1.394 0.162-0.173 0.343-0.32 0.512-0.485 0.134-0.131 0.27-0.261 0.408-0.387 0.27-0.246 0.542-0.488 0.826-0.714 0.216-0.172 0.439-0.334 0.662-0.495 0.216-0.156 0.425-0.321 0.648-0.466 1.029-0.671 2.123-1.235 3.266-1.688 0.011-0.004 0.022-0.008 0.033-0.013 2.371-0.934 4.936-1.411 7.49-1.466 1.153-0.025 2.612 0.037 3.661 0.175 0.251 0.033 0.486 0.069 0.68 0.111V331.67c-0.601 0.018-1.202 0.05-1.802 0.091C326.011 331.774 325.828 331.792 325.644 331.807z"/>
  </g>
  <g id="outlines">
    <path class="st1" d="M323.656 354.75c-2.554 0.054-5.119 0.531-7.49 1.466 -0.011 0.004-0.022 0.008-0.033 0.013 -1.143 0.453-2.237 1.018-3.266 1.688 -0.223 0.145-0.432 0.31-0.648 0.466 -0.223 0.161-0.446 0.322-0.662 0.495 -0.284 0.227-0.556 0.468-0.826 0.714 -0.138 0.126-0.274 0.256-0.408 0.387 -0.168 0.165-0.35 0.312-0.512 0.485 -0.411 0.44-0.787 0.91-1.141 1.394 -1.821 2.492-2.858 5.515-2.826 8.533 0 0.048 0 0.096 0.001 0.144 0.005 0.208 0.023 0.415 0.038 0.623 0.102 1.433 0.451 2.851 1.075 4.2 0.021 0.045 0.039 0.09 0.061 0.134 0.21 0.44 0.439 0.875 0.709 1.297 0.002 0.003 0.005 0.006 0.006 0.009 0.24 0.414 0.509 0.798 0.794 1.167 0.052 0.068 0.104 0.136 0.158 0.203 0.296 0.365 0.609 0.711 0.946 1.031 0.019 0.018 0.039 0.034 0.057 0.052 0.356 0.334 0.73 0.646 1.124 0.932 0.004 0.003 0.008 0.007 0.013 0.01 0.399 0.289 0.816 0.551 1.247 0.792 0.029 0.016 0.058 0.031 0.087 0.047 0.85 0.467 1.756 0.841 2.693 1.13 0.052 0.016 0.104 0.033 0.156 0.049 0.463 0.138 0.933 0.257 1.408 0.354 0.023 0.005 0.047 0.009 0.07 0.013 0.491 0.098 0.987 0.177 1.484 0.232 0.104 0.012 0.222 0.026 0.335 0.04 1.237 0.149 2.924 0.354 4.093-0.214 0.081-0.039 0.162-0.077 0.237-0.124 0.051-0.032 0.105-0.059 0.153-0.095 0.152-0.113 0.29-0.245 0.41-0.399 0.009-0.012 0.022-0.018 0.031-0.03 0.009-0.012 0.012-0.026 0.021-0.039 0.12-0.168 0.212-0.342 0.277-0.519 0.014-0.039 0.02-0.077 0.031-0.116 0.044-0.15 0.072-0.3 0.081-0.45 0.002-0.036 0.009-0.071 0.009-0.106 0.008-0.996-0.71-1.937-1.722-2.188 -0.009-0.002-0.018-0.005-0.027-0.007 -0.203-0.048-0.417-0.069-0.64-0.056h0c-1.73 0.102-3.569-0.001-5.224-0.593 -0.003-0.001-0.006-0.002-0.009-0.003 -0.305-0.11-0.607-0.23-0.897-0.375 -0.359-0.163-0.682-0.346-0.991-0.536 -0.943-0.58-1.651-1.289-2.169-2.097 -0.092-0.144-0.199-0.28-0.279-0.43 -0.748-1.27-1.121-2.689-1.271-4.109 -0.021-0.39-0.013-0.777 0.011-1.157 0.006-0.09 0.021-0.175 0.029-0.264 0.028-0.293 0.065-0.578 0.12-0.853 0.05-0.248 0.102-0.495 0.174-0.721 0.002-0.006 0.004-0.012 0.006-0.018 0.093-0.289 0.204-0.557 0.333-0.798 1.202-2.558 3.262-4.555 5.761-5.802 0.01-0.005 0.02-0.012 0.031-0.017 0.017-0.008 0.035-0.015 0.052-0.023 0.343-0.168 0.692-0.324 1.05-0.464 0.729-0.284 1.51-0.52 2.316-0.707 0.025-0.006 0.049-0.014 0.074-0.02 0.031-0.007 0.063-0.011 0.093-0.018 2.29-0.507 4.778-0.585 6.985-0.11 0.181 0.039 0.366 0.068 0.543 0.114v-4.467 -0.004c-0.193-0.042-0.428-0.078-0.68-0.111C326.268 354.787 324.808 354.725 323.656 354.75zM179.738 331.811c0.193 0.014 0.386 0.031 0.579 0.046 1.624 0.125 3.247 0.26 4.867 0.429 0.933 0.097 1.854 0.236 2.77 0.392 7.377 1.257 14.176 4.402 19.875 9.399 1.085 0.951 2.085 1.971 3.049 3.019 0.416 0.453 0.843 0.897 1.238 1.365 0.028 0.033 0.055 0.066 0.082 0.098 0.397 0.462 0.77 0.949 1.147 1.431 3.345 4.364 5.806 9.341 7.4 14.646 0.055 0.187 0.115 0.373 0.169 0.561 0.014 0.049 0.026 0.099 0.04 0.148 0.301 1.057 0.572 2.125 0.805 3.204 0.02 0.04 0.04 0.09 0.05 0.15 0.02 0.07 0.03 0.15 0.05 0.24 0.02 0.18 0.04 0.4 0.04 0.66 0.08 0.22 0.15 0.52 0.15 0.75 0.15 0.89 0.3 1.71 0.38 2.39 0.067 0.298 0.11 0.603 0.144 0.91 0.057 0.522 0.08 1.053 0.107 1.579 0.015 0.3 0.032 0.597 0.059 0.891 -0.174 0.561-0.335 1.125-0.486 1.693 -0.033 0.123-0.06 0.246-0.092 0.369 -0.117 0.458-0.23 0.916-0.332 1.377 -0.024 0.108-0.044 0.217-0.067 0.325 -0.104 0.491-0.202 0.983-0.288 1.477 -0.011 0.066-0.021 0.132-0.032 0.198 -0.093 0.551-0.176 1.103-0.245 1.657 -0.001 0.011-0.003 0.023-0.004 0.034 -0.737 5.967-0.067 12.044 2.551 17.466 0.058 0.121 0.121 0.239 0.182 0.359 0.189 0.377 0.388 0.75 0.596 1.119 0.12 0.214 0.247 0.425 0.374 0.636 0.164 0.273 0.333 0.543 0.508 0.811 0.081 0.125 0.152 0.253 0.236 0.377 0.099 0.146 0.209 0.285 0.311 0.429 0.128 0.182 0.259 0.362 0.392 0.541 0.221 0.297 0.447 0.59 0.68 0.878 0.126 0.155 0.253 0.308 0.382 0.461 0.243 0.287 0.49 0.569 0.744 0.846 0.144 0.157 0.291 0.311 0.438 0.464 0.244 0.254 0.491 0.505 0.745 0.75 0.183 0.177 0.37 0.349 0.558 0.521 0.225 0.206 0.451 0.41 0.682 0.608 0.244 0.209 0.493 0.411 0.744 0.611 0.185 0.148 0.369 0.297 0.558 0.44 0.322 0.244 0.65 0.48 0.983 0.71 0.127 0.088 0.252 0.178 0.38 0.264 0.414 0.277 0.835 0.543 1.263 0.799 0.055 0.033 0.109 0.067 0.164 0.1 4.045 2.376 8.67 3.75 13.368 3.77 0.608 0.003 1.218-0.016 1.828-0.059 3.856-0.276 7.661-1.544 10.727-3.936 1.184-0.923 2.194-1.994 3.073-3.159 0.004-0.005 0.008-0.01 0.011-0.014 0.192-0.255 0.379-0.515 0.557-0.779 0.21-0.311 0.422-0.621 0.613-0.945 0.01-0.017 0.02-0.034 0.03-0.051 0.517-0.877 0.964-1.797 1.355-2.744 0.067-0.163 0.13-0.329 0.194-0.494 0.123-0.318 0.241-0.638 0.352-0.961 0.088-0.258 0.168-0.518 0.248-0.779 0.087-0.283 0.175-0.566 0.253-0.852 0.018-0.067 0.042-0.133 0.059-0.2 0.047-0.18 0.079-0.36 0.122-0.539 0.08-0.336 0.163-0.672 0.227-1.008 0.018-0.094 0.031-0.187 0.047-0.281 1.424-8.053-1.758-16.102-8.958-20.488 -1.467-0.894-3.051-1.597-4.694-2.072 -0.026-0.008-0.052-0.016-0.078-0.023 -0.51-0.145-1.026-0.265-1.546-0.364 -0.072-0.014-0.145-0.027-0.217-0.04 -0.495-0.088-0.994-0.156-1.495-0.201 -0.094-0.008-0.188-0.012-0.283-0.019 -0.457-0.033-0.915-0.048-1.374-0.043 -0.099 0.001-0.198 0.003-0.297 0.005 -0.455 0.014-0.91 0.05-1.364 0.104 -0.112 0.013-0.225 0.023-0.337 0.039 -0.227 0.032-0.451 0.087-0.677 0.129 -0.307 0.057-0.615 0.099-0.92 0.175 -0.064 0.016-0.123 0.041-0.186 0.058 -0.095 0.025-0.184 0.06-0.278 0.087 -0.463 0.134-0.915 0.288-1.354 0.467 -0.056 0.023-0.11 0.05-0.165 0.073 -0.459 0.195-0.904 0.413-1.335 0.656 -0.059 0.033-0.116 0.068-0.174 0.102 -0.411 0.24-0.808 0.5-1.191 0.782 -0.075 0.055-0.15 0.111-0.223 0.168 -0.35 0.269-0.685 0.554-1.008 0.855 -0.091 0.085-0.183 0.167-0.271 0.255 -0.291 0.287-0.567 0.59-0.833 0.903 -0.097 0.114-0.198 0.223-0.292 0.34 -0.252 0.315-0.484 0.647-0.711 0.985 -0.083 0.124-0.174 0.241-0.253 0.368 -0.292 0.467-0.564 0.949-0.805 1.452 -1.371 2.56-0.935 6.004 0.437 8.572 0.196 0.367 0.411 0.716 0.643 1.042 1.959 2.757 5.085 3.952 8.41 3.686 1.477-0.174 2.073-1.363 1.937-2.465s-1.004-2.117-2.457-1.945c-1.05 0.08-1.8-0.07-2.54-0.37 -0.75-0.37-1.35-0.97-1.87-1.72 -0.45-0.82-0.75-1.72-0.82-2.61 -0.15-0.9 0-1.72 0.22-2.32 0.156-0.318 0.327-0.619 0.507-0.908 0.065-0.104 0.136-0.199 0.203-0.299 0.121-0.179 0.243-0.356 0.372-0.523 0.086-0.11 0.176-0.214 0.265-0.32 0.124-0.145 0.249-0.288 0.379-0.423 0.096-0.1 0.193-0.196 0.292-0.29 0.14-0.133 0.284-0.261 0.431-0.384 0.093-0.078 0.186-0.156 0.281-0.23 0.182-0.14 0.369-0.272 0.559-0.397 0.065-0.043 0.128-0.089 0.195-0.131 2.789-1.737 6.401-1.929 9.715-0.771 0.112 0.039 0.222 0.086 0.333 0.128 0.196 0.074 0.391 0.15 0.584 0.234 0.046 0.02 0.092 0.035 0.138 0.055 0.045 0.02 0.085 0.047 0.129 0.067 0.478 0.219 0.946 0.46 1.396 0.727 0.05 0.03 0.098 0.061 0.147 0.091 0.466 0.284 0.917 0.589 1.347 0.92 0.027 0.021 0.053 0.043 0.08 0.064 2.745 2.142 4.715 5.212 5.395 8.67 0.008 0.042 0.023 0.081 0.031 0.123 0.005 0.026 0.005 0.054 0.01 0.08 0.1 0.549 0.169 1.11 0.212 1.679 0.005 0.064 0.011 0.127 0.016 0.191 0.037 0.576 0.043 1.16 0.023 1.747 -0.002 0.062-0.003 0.123-0.005 0.184 -0.025 0.573-0.081 1.148-0.159 1.723 -0.012 0.088-0.022 0.175-0.036 0.263 -0.08 0.535-0.189 1.067-0.314 1.594 -0.031 0.132-0.061 0.263-0.095 0.394 -0.125 0.481-0.274 0.954-0.436 1.422 -0.057 0.165-0.113 0.33-0.175 0.494 -0.168 0.443-0.356 0.875-0.557 1.299 -0.075 0.159-0.148 0.318-0.227 0.474 -0.231 0.452-0.482 0.889-0.75 1.311 -0.059 0.093-0.115 0.188-0.176 0.28 -0.214 0.322-0.455 0.618-0.691 0.918 -0.131 0.166-0.245 0.349-0.382 0.508 -3.28 3.793-7.788 5.102-12.384 4.778 -5.315-0.375-10.749-2.935-14.546-6.39 -0.243-0.221-0.48-0.445-0.709-0.673 -0.412-0.438-0.804-0.892-1.177-1.359 -0.746-0.935-1.415-1.926-2.005-2.962 -0.295-0.518-0.57-1.047-0.824-1.585 -0.509-1.077-0.938-2.193-1.284-3.336s-0.609-2.313-0.788-3.499c-0.417-2.771-0.385-5.598-0.007-8.372 0.11-0.806 0.25-1.607 0.414-2.403 0.047-0.225 0.109-0.445 0.16-0.669 0.134-0.592 0.267-1.185 0.428-1.77 0.228-0.826 0.481-1.645 0.758-2.456 0.203-0.594 0.285-1.099 0.479-1.79 0.001-0.004 0.002-0.007 0.003-0.011 0.066-0.232 0.144-0.484 0.244-0.768 1.487-4.229 5.6-7.13 9.402-9.495 9.287-5.774 21.479-6.092 31.353-1.613 4.283 1.943 8.117 4.8 11.1 8.497 0.144 0.179 0.287 0.359 0.427 0.542 0.213 0.277 0.426 0.553 0.629 0.839 0.374 0.527 0.739 1.062 1.078 1.62v0.35c0 0.576 0.012 1.153 0.032 1.729 0.009 0.276 0.026 0.551 0.039 0.826 0.014 0.277 0.028 0.555 0.046 0.832 0.025 0.382 0.058 0.763 0.092 1.145 0.012 0.138 0.026 0.276 0.039 0.414 0.338 3.424 1.035 6.811 2.177 10.061 0.062 0.176 0.14 0.343 0.205 0.517 0.222 0.603 0.456 1.2 0.707 1.788 0.102 0.238 0.205 0.475 0.311 0.71 2.662 5.869 6.804 10.911 12.068 14.701 0.133 0.096 0.256 0.202 0.39 0.296 3.411 2.389 7.213 4.151 11.193 5.277 0.245 0.069 0.49 0.139 0.737 0.203 0.387 0.101 0.776 0.193 1.166 0.282 0.375 0.085 0.749 0.176 1.126 0.25 0.073 0.014 0.146 0.025 0.219 0.039 2.416 0.46 4.875 0.688 7.336 0.678 0.128 0 0.255-0.001 0.383-0.002 0.503-0.007 1.005-0.026 1.507-0.054 0.233-0.013 0.466-0.03 0.7-0.047 0.425-0.031 0.849-0.066 1.273-0.111 0.359-0.038 0.716-0.089 1.074-0.138 0.318-0.043 0.636-0.082 0.952-0.133 0.691-0.112 1.379-0.241 2.064-0.393v-4.59c-0.569 0.169-1.147 0.317-1.732 0.447 -0.04 0.009-0.081 0.016-0.121 0.024 -4.136 0.895-8.62 0.822-12.708-0.008 -0.006-0.001-0.012-0.002-0.018-0.003 -0.491-0.1-0.98-0.212-1.465-0.334 -0.042-0.011-0.084-0.024-0.127-0.034 -0.469-0.12-0.936-0.249-1.399-0.389 -0.096-0.029-0.191-0.061-0.286-0.091 -0.398-0.124-0.794-0.253-1.187-0.391 -0.146-0.051-0.291-0.106-0.436-0.16 -0.325-0.119-0.649-0.242-0.97-0.371 -0.203-0.082-0.405-0.166-0.607-0.252 -0.241-0.103-0.482-0.207-0.72-0.315 -0.266-0.12-0.53-0.243-0.793-0.37 -0.148-0.072-0.294-0.145-0.441-0.219 -0.335-0.169-0.669-0.339-0.999-0.519 -0.039-0.021-0.077-0.043-0.116-0.065 -0.379-0.209-0.755-0.424-1.126-0.648 -0.553-0.333-1.093-0.687-1.626-1.052 -0.2-0.137-0.399-0.274-0.595-0.415 -0.582-0.417-1.148-0.855-1.702-1.31 -0.082-0.067-0.163-0.136-0.244-0.204 -1.651-1.385-3.171-2.931-4.514-4.634 -0.184-0.234-0.341-0.484-0.518-0.722 -0.151-0.203-0.297-0.41-0.443-0.616 -0.336-0.476-0.666-0.955-0.974-1.447 -0.242-0.386-0.471-0.779-0.696-1.174 -0.18-0.318-0.367-0.631-0.536-0.954 -0.349-0.666-0.678-1.341-0.982-2.028 -0.037-0.083-0.078-0.164-0.114-0.248 -1.44-3.331-2.351-6.889-2.781-10.513 -0.01-0.082-0.017-0.165-0.026-0.247 -0.097-0.867-0.172-1.736-0.215-2.608 0-0.01 0-0.01 0-0.02 0-0.006 0-0.009 0-0.015 0.028-0.975 0.002-0.069 0 0.001 0 0.003 0 0.014 0 0.013 0-0.004 0-0.008 0-0.011 0.026-0.914 0.061-1.823 0.104-2.729 0.033-0.699 0.073-1.396 0.122-2.091 0.008-0.116 0.015-0.232 0.024-0.347 0.055-0.74 0.119-1.478 0.2-2.214 0.022-0.174 0.041-0.348 0.064-0.522 0.007-0.058 0.016-0.115 0.023-0.173 0.283-2.284 0.712-4.549 1.405-6.8 0.376-1.222 0.836-2.41 1.332-3.582 0.226-0.534 0.443-1.073 0.691-1.597 0.073-0.153 0.142-0.308 0.217-0.46 0.056-0.116 0.115-0.23 0.172-0.346 0.808-1.606 1.728-3.151 2.747-4.628 0.21-0.303 0.421-0.604 0.639-0.901 0.343-0.468 0.697-0.928 1.06-1.38 0.426-0.527 0.859-1.048 1.312-1.551 0.144-0.162 0.288-0.323 0.435-0.483 1.71-1.853 3.601-3.547 5.654-5.045 2.209-1.612 4.577-2.99 7.055-4.138 0.01-0.005 0.02-0.01 0.031-0.015 0.926-0.43 1.87-0.822 2.826-1.185 0.076-0.029 0.151-0.06 0.227-0.089 1.158-0.433 2.333-0.818 3.523-1.156 0.044-0.012 0.088-0.023 0.132-0.035 0.539-0.151 1.081-0.292 1.624-0.424 0.137-0.033 0.276-0.063 0.413-0.095 0.449-0.104 0.9-0.203 1.352-0.294 0.182-0.037 0.365-0.071 0.548-0.105 0.411-0.077 0.822-0.149 1.235-0.216 0.204-0.033 0.408-0.065 0.612-0.095 0.399-0.059 0.8-0.111 1.2-0.159 0.208-0.025 0.416-0.052 0.624-0.074 0.42-0.045 0.841-0.082 1.261-0.115 0.184-0.015 0.367-0.033 0.551-0.046 0.6-0.041 1.201-0.073 1.802-0.091v-4.546h-0.229c-1.836 0.044-9.082 0.55-10.335 0.877 -1.217 0.318-2.435 0.624-3.636 0.999 -2.478 0.774-4.893 1.768-7.116 3.119 -0.07 0-0.07 0-0.07 0 -3.4 1.056-6.152 3.657-8.789 5.935 -2.575 2.224-4.931 4.655-6.946 7.403 -4.312 5.88-7.13 13.025-8.114 20.242 -2.883-3.487-6.753-6.318-10.786-8.324 -15.26-7.589-35.199-4.577-45.804 9.324 -0.08-0.3-0.15-0.6-0.15-0.82 -1.052-4.821-2.688-9.525-5.005-13.888 -3.863-7.273-9.665-13.455-16.757-17.66 -3.649-2.164-7.6-3.808-11.691-4.926 -4.282-1.17-8.93-2.278-13.392-2.282H179v4.634C179.246 331.776 179.492 331.793 179.738 331.811zM195.746 399.484c0.033-0.048 0.065-0.096 0.099-0.144 0.32-0.462 0.627-0.934 0.92-1.416 0.103-0.17 0.205-0.341 0.305-0.513 0.208-0.357 0.408-0.719 0.601-1.087 0.141-0.267 0.281-0.534 0.413-0.807 0.13-0.267 0.253-0.538 0.375-0.81 0.162-0.36 0.325-0.719 0.473-1.087 0.064-0.158 0.12-0.319 0.181-0.478 -0.48 1.541-0.631 2.079 0.359-0.947 0.05-0.154 0.096-0.294 0.153-0.467 0.015-0.048 0.026-0.085 0.041-0.131 1.603-5.178 1.257-4.155 0.57-2.006 -0.028 0.088-0.056 0.175-0.085 0.267 1.195-4.659 1.522-9.556 0.523-14.256 -0.057-0.267-0.119-0.533-0.184-0.799 -0.154-0.626-0.326-1.249-0.53-1.867 -0.441-1.335-0.997-2.619-1.65-3.845 -0.018-0.034-0.036-0.069-0.055-0.104 -1.997-3.709-4.91-6.881-8.406-9.292 -0.006-0.004-0.012-0.009-0.018-0.013 -0.019-0.013-0.038-0.024-0.057-0.037 -0.307-0.21-0.619-0.409-0.933-0.606 -0.321-0.201-0.646-0.393-0.974-0.581 -0.045-0.026-0.089-0.052-0.134-0.077 -2.512-1.421-5.221-2.441-8.055-3.049 -0.227-0.049-0.453-0.104-0.682-0.147v4.448c0.424 0.083 0.842 0.188 1.259 0.298 3.794 0.996 7.29 3.058 10.085 5.822 0.146 0.144 0.291 0.289 0.433 0.437 0.165 0.172 0.327 0.345 0.486 0.521 0.276 0.307 0.551 0.615 0.81 0.936 0.006 0.007 0.011 0.015 0.017 0.022 1.505 1.867 2.698 3.97 3.511 6.218 0.087 0.24 0.177 0.478 0.255 0.722 0.053 0.165 0.094 0.334 0.143 0.5 0.082 0.283 0.173 0.563 0.242 0.849 0.044 0.181 0.073 0.366 0.113 0.548 0.028 0.128 0.054 0.257 0.079 0.385 0.723 3.648 0.568 7.547-0.349 11.274 -0.02 0.08-0.037 0.161-0.057 0.242 -0.275 1.076-0.612 2.136-1.01 3.17 -0.041 0.106-0.078 0.213-0.12 0.318 -0.597 1.494-1.319 2.93-2.16 4.276 -0.556 0.89-1.164 1.739-1.821 2.54 -0.109 0.133-0.225 0.257-0.336 0.386 -0.216 0.252-0.432 0.504-0.658 0.746 -0.028 0.03-0.053 0.062-0.081 0.092 -0.121 0.127-0.251 0.244-0.374 0.369 -0.215 0.217-0.429 0.434-0.651 0.642 -0.143 0.133-0.291 0.261-0.437 0.391 -0.25 0.221-0.501 0.441-0.76 0.652 -0.126 0.103-0.255 0.202-0.383 0.302 -0.292 0.228-0.588 0.451-0.89 0.665 -0.11 0.078-0.221 0.154-0.332 0.23 -0.328 0.224-0.661 0.441-0.999 0.649 -0.1 0.062-0.201 0.124-0.302 0.184 -0.351 0.21-0.709 0.409-1.07 0.601 -0.1 0.053-0.199 0.108-0.3 0.16 -0.361 0.186-0.729 0.361-1.099 0.53 -0.109 0.05-0.216 0.102-0.325 0.15 -0.367 0.162-0.74 0.311-1.115 0.455 -0.114 0.044-0.226 0.093-0.341 0.135 -0.462 0.171-0.929 0.33-1.401 0.475 -0.021 0.007-0.042 0.015-0.063 0.021v4.63c0.001 0 0.002-0.001 0.003-0.001C185.898 409.298 191.779 405.154 195.746 399.484z"/>
  </g>
</svg>
